<svg width="380" height="240" viewBox="0 0 380 240" fill="none" xmlns="http://www.w3.org/2000/svg">
<g clip-path="url(#clip0_109_190)">
<g clip-path="url(#clip1_109_190)">
<path d="M28.0896 168.958L25.9114 171.137L30.2678 175.493L32.446 173.315L28.0896 168.958Z" fill="#3730A3"/>
<path d="M28.0896 160.245L25.9114 162.423L28.0896 164.601L30.2678 162.423L28.0896 160.245Z" fill="#3730A3"/>
<path d="M30.2678 175.493L28.0893 177.671L30.2678 179.85L32.4463 177.671L30.2678 175.493Z" fill="#3730A3"/>
<path d="M17.1981 175.493L15.0196 177.671L17.1981 179.85L19.3766 177.671L17.1981 175.493Z" fill="#3730A3"/>
<path d="M30.2678 179.85L28.0896 182.028L30.2678 184.206L32.446 182.028L30.2678 179.85Z" fill="#3730A3"/>
<path d="M28.0896 164.601L25.9111 166.78L28.0897 168.958L30.2682 166.78L28.0896 164.601Z" fill="#3730A3"/>
<path d="M89.0825 151.532L86.9039 153.71L91.2606 158.067L93.4391 155.888L89.0825 151.532Z" fill="#3730A3"/>
<path d="M93.4387 160.245L91.2606 162.423L95.6172 166.78L97.7954 164.602L93.4387 160.245Z" fill="#3730A3"/>
<path d="M45.516 29.5465L43.3378 31.7246L45.516 33.9028L47.6941 31.7246L45.516 29.5465Z" fill="#3730A3"/>
<path d="M45.5159 51.3295L43.3378 53.5077L45.516 55.6859L47.6941 53.5077L45.5159 51.3295Z" fill="#3730A3"/>
<path d="M89.0821 147.175L86.9039 149.353L89.0824 151.532L91.2606 149.354L89.0821 147.175Z" fill="#3730A3"/>
<path d="M41.1593 68.7559L38.9811 70.9341L41.1596 73.1126L43.3378 70.9344L41.1593 68.7559Z" fill="#3730A3"/>
<path d="M52.0508 36.0813L49.8726 38.2595L52.0511 40.438L54.2293 38.2598L52.0508 36.0813Z" fill="#3730A3"/>
<path d="M104.33 57.8643L99.9736 62.221L102.152 64.3995L106.509 60.0428L104.33 57.8643Z" fill="#3730A3"/>
<path d="M108.687 49.151L102.152 55.6862L104.33 57.8643L110.866 51.3292L108.687 49.151Z" fill="#3730A3"/>
<path d="M56.4078 5.58497L52.0511 9.94162L54.2293 12.1198L58.586 7.76315L56.4078 5.58497Z" fill="#3730A3"/>
<path d="M65.1224 1.22626L67.297 -0.948337L62.9405 -5.30485L56.4057 1.22992L58.584 3.40818L62.9441 -0.951998L65.1224 1.22626Z" fill="#3730A3"/>
<path d="M99.9739 36.0813L97.7958 38.2595L99.9739 40.4376L102.152 38.2595L99.9739 36.0813Z" fill="#3730A3"/>
<path d="M119.578 33.9028L108.687 44.7943L110.865 46.9728L121.757 36.0813L119.578 33.9028Z" fill="#3730A3"/>
<path d="M296.022 175.493L293.844 177.671L296.022 179.85L298.2 177.671L296.022 175.493Z" fill="#3730A3"/>
<path d="M269.882 192.92L265.525 197.276L267.704 199.455L272.06 195.098L269.882 192.92Z" fill="#3730A3"/>
<path d="M287.308 179.85L285.13 182.028L287.309 184.206L289.487 182.028L287.308 179.85Z" fill="#3730A3"/>
<path d="M226.316 210.346L224.138 212.525L226.316 214.703L228.494 212.525L226.316 210.346Z" fill="#3730A3"/>
<path d="M265.525 201.633L263.347 203.811L265.526 205.989L267.704 203.811L265.525 201.633Z" fill="#3730A3"/>
<path d="M300.378 175.493L298.2 177.672L300.378 179.85L302.557 177.672L300.378 175.493Z" fill="#3730A3"/>
<path d="M99.9739 66.5778L95.6172 70.9344L97.7954 73.1126L102.152 68.756L99.9739 66.5778Z" fill="#3730A3"/>
<path d="M117.4 184.207L115.222 186.385L117.4 188.563L119.578 186.385L117.4 184.207Z" fill="#3730A3"/>
<path d="M97.7954 168.958L95.6172 171.136L106.509 182.028L108.687 179.85L97.7954 168.958Z" fill="#3730A3"/>
<path d="M126.114 188.563L123.935 190.742L126.113 192.92L128.292 190.741L126.114 188.563Z" fill="#3730A3"/>
<path d="M182.75 201.633L180.572 203.811L182.75 205.989L184.928 203.811L182.75 201.633Z" fill="#3730A3"/>
<path d="M187.106 210.346L184.928 212.525L187.106 214.703L189.285 212.524L187.106 210.346Z" fill="#3730A3"/>
<path d="M152.253 210.346L150.075 212.524L152.253 214.703L154.432 212.525L152.253 210.346Z" fill="#3730A3"/>
<path d="M43.3378 205.99L41.1596 208.168L43.3378 210.346L45.516 208.168L43.3378 205.99Z" fill="#3730A3"/>
<path d="M25.9101 110.143L23.7318 107.964L25.9101 105.786L23.7318 103.608L25.9101 101.43L23.7318 99.2514L25.9101 97.0732L23.7318 94.8949L25.9101 92.7167L23.7318 90.5384L19.3753 94.8949L21.5536 97.0732L19.3753 99.2514L21.5536 101.43L19.3753 103.608L21.5536 105.786L19.3753 107.964L17.1971 105.786L12.8406 110.143L15.0188 112.321L17.1971 110.143L19.3753 112.321L17.1971 114.499L19.3753 116.677L17.1971 118.856L15.0188 116.677L12.8406 118.856L15.0188 121.034L12.8406 123.212L15.0188 125.391L17.1971 123.212L19.3753 125.391L17.1971 127.569L19.3753 129.747L17.1971 131.925L19.3753 134.104L17.1971 136.282L19.3753 138.46L17.1971 140.638L19.3753 142.817L17.1971 144.995L19.3753 147.173L17.1971 149.351L19.3753 151.53L17.1971 153.708L19.3753 155.886L17.1971 158.064L19.3753 160.243L17.1971 162.421L21.5572 166.781L19.379 168.959L21.5536 171.134L19.3753 173.312L21.5572 175.494L19.379 177.672L21.5572 179.851L19.379 182.029L23.7355 186.385L21.5572 188.564L23.7355 190.742L21.5572 192.92L25.9138 197.277L23.7355 199.455L28.092 203.811L25.9138 205.99L30.2703 210.346L28.092 212.524L34.6268 219.059L32.4485 221.237L56.4093 245.198L58.5876 243.02L65.1224 249.555L67.3006 247.377L69.4789 249.555L71.6571 247.377L76.0136 251.733L78.1919 249.555L80.3702 251.733L82.5484 249.555L86.9049 253.911L89.0832 251.733L91.2614 253.911L93.4397 251.733L97.7962 256.09L99.9745 253.911L102.153 256.09L104.331 253.911L108.687 258.268L110.866 256.09L115.222 260.446L117.401 258.268L121.757 262.624L123.935 260.446L126.114 262.624L128.292 260.446L132.648 264.803L134.827 262.624L139.183 266.981L141.361 264.803L143.54 266.981L145.718 264.803L150.074 269.159L152.253 266.981L156.609 271.337L158.787 269.159L160.966 271.337L163.144 269.159L165.322 271.337L167.5 269.159L169.679 271.337L171.857 269.159L174.035 271.337L176.213 269.159L178.392 271.337L180.57 269.159L182.748 271.337L187.105 266.981L184.926 264.803L182.748 266.981L180.57 264.803L178.392 266.981L176.213 264.803L174.035 266.981L171.857 264.803L169.679 266.981L167.5 264.803L165.322 266.981L163.144 264.803L160.966 266.981L156.609 262.624L154.431 264.803L152.253 262.624L150.074 264.803L145.718 260.446L143.54 262.624L139.183 258.268L137.005 260.446L134.827 258.268L132.648 260.446L128.292 256.09L126.114 258.268L121.757 253.911L119.579 256.09L115.222 251.733L113.044 253.911L110.866 251.733L108.687 253.911L104.331 249.555L102.153 251.733L97.7962 247.377L95.618 249.555L93.4397 247.377L91.2614 249.555L86.9049 245.198L84.7267 247.377L82.5484 245.198L80.3702 247.377L78.1919 245.198L76.0136 247.377L71.6571 243.02L69.4789 245.198L65.1224 240.842L62.9441 243.02L54.2311 234.307L52.0528 236.485L38.9833 223.416L41.1615 221.237L32.4485 212.524L34.6268 210.346L30.2703 205.99L32.4485 203.811L28.092 199.455L30.2703 197.277L25.9137 192.92L28.092 190.742L25.9137 188.564L28.092 186.385L25.9137 184.207L28.092 182.029L23.7355 177.672L25.9137 175.494L23.7355 173.316L25.9137 171.138L23.7318 168.956L25.9101 166.777L23.7355 164.603L25.9137 162.425L23.7318 160.243L25.9101 158.064L23.7318 155.886L25.9101 153.708L23.7318 151.53L25.9101 149.351L21.5536 144.995L25.9101 140.638L21.5536 136.282L23.7318 134.104L21.5536 131.925L25.9101 127.569L21.5536 123.212L25.9101 118.856L23.7318 116.677L25.9101 114.499L23.7318 112.321L25.9101 110.143Z" fill="#3730A3"/>
<path d="M28.0896 107.966L25.9114 110.144L28.0896 112.322L30.2678 110.144L28.0896 107.966Z" fill="#3730A3"/>
<path d="M30.2666 101.43L32.4448 99.2514L30.2666 97.0732L25.9101 101.43L28.0883 103.608L25.9101 105.786L28.0883 107.964L32.4448 103.608L30.2666 101.43Z" fill="#3730A3"/>
<path d="M43.3378 149.353L41.1593 151.532L43.3378 153.71L45.5163 151.532L43.3378 149.353Z" fill="#3730A3"/>
<path d="M28.0893 147.175L25.9111 149.353L28.0896 151.532L30.2678 149.354L28.0893 147.175Z" fill="#3730A3"/>
<path d="M34.6244 136.284L32.4462 138.462L34.6244 140.64L36.8026 138.462L34.6244 136.284Z" fill="#3730A3"/>
<path d="M28.0897 151.532L25.9114 153.71L28.0896 155.888L30.2678 153.71L28.0897 151.532Z" fill="#3730A3"/>
<path d="M28.0896 129.749L25.9114 131.927L28.0896 134.105L30.2678 131.927L28.0896 129.749Z" fill="#3730A3"/>
<path d="M52.0508 14.2983L47.6945 18.6546L49.8726 20.8328L54.229 16.4764L52.0508 14.2983Z" fill="#3730A3"/>
<path d="M28.0896 138.462L25.9114 140.64L28.0896 142.818L30.2678 140.64L28.0896 138.462Z" fill="#3730A3"/>
<path d="M28.0896 134.105L25.9111 136.284L28.0896 138.462L30.2682 136.284L28.0896 134.105Z" fill="#3730A3"/>
<path d="M28.0896 142.818L25.9111 144.997L28.0893 147.175L30.2678 144.997L28.0896 142.818Z" fill="#3730A3"/>
<path d="M58.5857 229.951L56.4075 232.129L58.586 234.308L60.7642 232.129L58.5857 229.951Z" fill="#3730A3"/>
<path d="M130.47 18.6546L123.935 25.1898L126.113 27.368L132.649 20.8328L130.47 18.6546Z" fill="#3730A3"/>
<path d="M49.8726 20.8328L45.516 25.1894L47.6945 27.3679L52.0512 23.0113L49.8726 20.8328Z" fill="#3730A3"/>
<path d="M41.1593 212.525L38.9811 214.703L49.8727 225.594L52.0509 223.416L41.1593 212.525Z" fill="#3730A3"/>
<path d="M139.183 9.9416L132.649 16.4764L134.827 18.6546L141.362 12.1198L139.183 9.9416Z" fill="#3730A3"/>
<path d="M104.33 236.486L102.152 238.664L104.331 240.843L106.509 238.664L104.33 236.486Z" fill="#3730A3"/>
<path d="M99.9737 197.276L97.7955 199.455L99.974 201.633L102.152 199.455L99.9737 197.276Z" fill="#3730A3"/>
<path d="M43.3375 192.92L41.1593 195.098L43.3378 197.276L45.516 195.098L43.3375 192.92Z" fill="#3730A3"/>
<path d="M28.0896 155.888L25.9111 158.067L28.0896 160.245L30.2681 158.067L28.0896 155.888Z" fill="#3730A3"/>
<path d="M36.803 203.811L34.6245 205.99L38.9811 210.346L41.1596 208.168L36.803 203.811Z" fill="#3730A3"/>
<path d="M34.6245 197.276L32.4463 199.455L34.6245 201.633L36.8027 199.455L34.6245 197.276Z" fill="#3730A3"/>
<path d="M34.6244 18.6549L32.4462 20.8331L34.6244 23.0113L36.8026 20.8331L34.6244 18.6549Z" fill="#3730A3"/>
<path d="M32.4463 25.1894L30.2678 27.368L32.4463 29.5465L34.6248 27.3679L32.4463 25.1894Z" fill="#3730A3"/>
<path d="M28.0896 38.2595L25.9111 40.438L28.0893 42.6161L30.2678 40.4377L28.0896 38.2595Z" fill="#3730A3"/>
<path d="M15.0196 168.958L12.8414 171.136L17.1981 175.493L19.3763 173.315L15.0196 168.958Z" fill="#3730A3"/>
<path d="M12.8414 192.919L10.6629 195.098L12.8414 197.276L15.0199 195.098L12.8414 192.919Z" fill="#3730A3"/>
<path d="M8.48472 175.493L6.30621 177.672L8.48472 179.85L10.6632 177.672L8.48472 175.493Z" fill="#3730A3"/>
<path d="M45.5163 -5.3066L41.1596 -0.949951L43.3378 1.22824L47.6944 -3.12842L45.5163 -5.3066Z" fill="#3730A3"/>
<path d="M30.2678 -3.12844L28.0896 -0.950256L30.2681 1.22826L32.4463 -0.949929L30.2678 -3.12844Z" fill="#3730A3"/>
<path d="M21.5548 201.633L19.3763 203.811L21.5545 205.989L23.7329 203.811L21.5548 201.633Z" fill="#3730A3"/>
<path d="M32.4463 7.76343L28.0896 12.1201L30.2678 14.2983L34.6244 9.94162L32.4463 7.76343Z" fill="#3730A3"/>
<path d="M38.9811 9.94129L34.6245 14.2979L36.803 16.4765L41.1596 12.1198L38.9811 9.94129Z" fill="#3730A3"/>
<path d="M41.1594 3.40672L36.803 7.76309L38.9812 9.94127L43.3375 5.5849L41.1594 3.40672Z" fill="#3730A3"/>
<path d="M30.2678 223.416L28.0896 225.594L34.6244 232.129L36.8026 229.951L30.2678 223.416Z" fill="#3730A3"/>
<path d="M23.733 208.168L21.5547 210.346L23.7329 212.524L25.9112 210.346L23.733 208.168Z" fill="#3730A3"/>
<path d="M28.0896 112.322L25.9111 114.501L28.0896 116.679L30.2681 114.501L28.0896 112.322Z" fill="#3730A3"/>
<path d="M28.0896 121.035L25.9111 123.214L28.0893 125.392L30.2678 123.214L28.0896 121.035Z" fill="#3730A3"/>
<path d="M32.4463 116.679L30.2678 118.857L32.4459 121.035L34.6244 118.857L32.4463 116.679Z" fill="#3730A3"/>
<path d="M19.3763 212.525L17.1981 214.703L19.3763 216.881L21.5545 214.703L19.3763 212.525Z" fill="#3730A3"/>
<path d="M25.9114 214.703L23.7329 216.881L28.0896 221.238L30.2681 219.059L25.9114 214.703Z" fill="#3730A3"/>
<path d="M311.27 164.601L304.735 171.136L306.914 173.315L313.448 166.78L311.27 164.601Z" fill="#3730A3"/>
<path d="M156.61 -3.12844L150.075 3.4064L152.253 5.58491L158.788 -0.94993L156.61 -3.12844Z" fill="#3730A3"/>
<path d="M143.54 5.58494L141.362 7.76312L143.54 9.9413L145.718 7.76311L143.54 5.58494Z" fill="#3730A3"/>
<path d="M30.2681 31.7246L28.0896 33.9032L30.2678 36.0813L32.4463 33.9028L30.2681 31.7246Z" fill="#3730A3"/>
<path d="M23.733 55.6859L21.5544 57.8644L23.733 60.0429L25.9115 57.8644L23.733 55.6859Z" fill="#3730A3"/>
<path d="M38.9811 49.151L34.6245 53.5077L36.803 55.6862L41.1596 51.3295L38.9811 49.151Z" fill="#3730A3"/>
<path d="M23.7329 60.0429L19.3763 64.3996L21.5545 66.5778L25.9111 62.2211L23.7329 60.0429Z" fill="#3730A3"/>
<path d="M25.9101 57.8646L28.0883 60.0428L25.9101 62.2211L28.0883 64.3993L32.4448 60.0428L30.2666 57.8646L34.6231 53.5081L32.4448 51.3298L36.8014 46.9733L34.6231 44.795L36.8014 42.6168L34.6231 40.4385L30.2666 44.795L32.4448 46.9733L28.0883 51.3298L30.2666 53.5081L25.9101 57.8646Z" fill="#3730A3"/>
<path d="M21.5547 70.9344L17.1981 75.2911L19.3762 77.4693L23.7329 73.1126L21.5547 70.9344Z" fill="#3730A3"/>
<path d="M21.5544 66.5777L19.3762 68.7559L21.5547 70.9344L23.7329 68.7562L21.5544 66.5777Z" fill="#3730A3"/>
<path d="M32.4463 73.1125L30.2678 75.291L32.4459 77.4692L34.6245 75.2907L32.4463 73.1125Z" fill="#3730A3"/>
<path d="M32.4459 77.4692L30.2678 79.6474L32.4463 81.8259L34.6244 79.6478L32.4459 77.4692Z" fill="#3730A3"/>
<path d="M19.3753 81.8254L21.5536 79.6471L19.3753 77.4689L15.0188 81.8254L17.1971 84.0037L15.0188 86.1819L17.1971 88.3602L21.5536 84.0037L19.3753 81.8254Z" fill="#3730A3"/>
<path d="M36.803 60.0426L32.4463 64.3992L34.6245 66.5774L38.9811 62.2208L36.803 60.0426Z" fill="#3730A3"/>
<path d="M34.6244 66.5774L30.2678 70.9341L32.4463 73.1126L36.8029 68.756L34.6244 66.5774Z" fill="#3730A3"/>
<path d="M36.8029 55.6862L34.6248 57.8644L36.8029 60.0426L38.9811 57.8644L36.8029 55.6862Z" fill="#3730A3"/>
<path d="M17.1971 101.43L19.3753 99.2515L17.1971 97.0732L12.8406 101.43L17.1971 105.786L19.3753 103.608L17.1971 101.43Z" fill="#3730A3"/>
<path d="M15.0199 151.532L12.8414 153.71L15.0196 155.888L17.1981 153.71L15.0199 151.532Z" fill="#3730A3"/>
<path d="M15.0196 147.175L12.8414 149.353L15.0199 151.532L17.1981 149.354L15.0196 147.175Z" fill="#3730A3"/>
<path d="M15.0196 155.888L12.8414 158.067L15.0196 160.245L17.1977 158.067L15.0196 155.888Z" fill="#3730A3"/>
<path d="M15.0196 160.245L12.8411 162.423L15.0196 164.602L17.1981 162.423L15.0196 160.245Z" fill="#3730A3"/>
<path d="M17.1981 88.3608L15.0199 90.539L17.1981 92.7172L19.3763 90.539L17.1981 88.3608Z" fill="#3730A3"/>
<path d="M15.0196 164.602L12.8414 166.78L15.0196 168.958L17.1977 166.78L15.0196 164.602Z" fill="#3730A3"/>
<path d="M15.0199 142.818L12.8414 144.997L15.0196 147.175L17.1981 144.997L15.0199 142.818Z" fill="#3730A3"/>
<path d="M17.1981 92.7171L15.0196 94.8956L17.1981 97.0741L19.3766 94.8956L17.1981 92.7171Z" fill="#3730A3"/>
<path d="M32.4463 81.826L28.0896 86.1826L30.2678 88.3608L34.6244 84.0042L32.4463 81.826Z" fill="#3730A3"/>
<path d="M15.0196 125.392L12.8414 127.57L15.0199 129.749L17.1981 127.571L15.0196 125.392Z" fill="#3730A3"/>
<path d="M15.0196 112.322L12.8414 114.501L15.0196 116.679L17.1977 114.501L15.0196 112.322Z" fill="#3730A3"/>
<path d="M56.4093 -7.48677L65.1224 -16.1998L62.9441 -18.378L76.0136 -31.4476L73.8354 -33.6258L76.0136 -35.8041L78.1919 -33.6258L89.0832 -44.5171L86.9049 -46.6954L91.2614 -51.0519L93.4397 -48.8736L106.509 -61.9432L102.153 -66.2997L69.4789 -33.6258L71.6571 -31.4476L58.5876 -18.378L60.7658 -16.1998L52.0528 -7.48677L54.2311 -5.30852L47.6927 1.2299L49.8709 3.40816L58.5876 -5.30852L56.4093 -7.48677Z" fill="#3730A3"/>
<path d="M17.198 184.206L15.0195 186.385L17.1977 188.563L19.3762 186.385L17.198 184.206Z" fill="#3730A3"/>
<path d="M8.48476 105.787L6.30658 107.966L10.663 112.322L12.8411 110.144L8.48476 105.787Z" fill="#3730A3"/>
<path d="M12.8414 179.85L10.6629 182.028L12.8414 184.207L15.0199 182.028L12.8414 179.85Z" fill="#3730A3"/>
<path d="M12.8415 136.284L10.6633 138.462L15.0199 142.818L17.1981 140.64L12.8415 136.284Z" fill="#3730A3"/>
<path d="M15.0199 129.749L12.8414 131.927L15.0196 134.105L17.1981 131.927L15.0199 129.749Z" fill="#3730A3"/>
<path d="M17.1981 179.85L15.0199 182.028L17.1981 184.206L19.3763 182.028L17.1981 179.85Z" fill="#3730A3"/>
<path d="M32.4463 190.741L30.2678 192.92L32.4459 195.098L34.6245 192.919L32.4463 190.741Z" fill="#3730A3"/>
<path d="M32.446 151.532L30.2678 153.71L32.4463 155.888L34.6245 153.71L32.446 151.532Z" fill="#3730A3"/>
<path d="M30.2678 184.206L28.0897 186.385L32.4463 190.741L34.6245 188.563L30.2678 184.206Z" fill="#3730A3"/>
<path d="M19.3763 190.741L17.1981 192.92L19.3763 195.098L21.5545 192.92L19.3763 190.741Z" fill="#3730A3"/>
<path d="M19.3762 195.098L15.0196 199.455L17.1981 201.633L21.5547 197.276L19.3762 195.098Z" fill="#3730A3"/>
<path d="M28.0893 125.392L25.9111 127.57L28.0896 129.749L30.2678 127.571L28.0893 125.392Z" fill="#3730A3"/>
<path d="M43.3378 36.081L38.9811 40.4377L41.1596 42.6162L45.5163 38.2595L43.3378 36.081Z" fill="#3730A3"/>
<path d="M41.1597 42.6161L36.803 46.9729L38.9812 49.1511L43.3379 44.7943L41.1597 42.6161Z" fill="#3730A3"/>
<path d="M36.8026 33.9028L32.4459 38.2595L34.6244 40.438L38.9811 36.0813L36.8026 33.9028Z" fill="#3730A3"/>
<path d="M25.9101 84.0036L28.0884 81.8254L25.9101 79.6471L30.2666 75.2906L28.0884 73.1124L30.2666 70.9341L28.0884 68.7558L30.2666 66.5776L28.0884 64.3993L23.7319 68.7558L25.9101 70.9341L23.7319 73.1124L25.9101 75.2906L21.5536 79.6471L23.7319 81.8254L21.5536 84.0036L23.7319 86.1819L21.5536 88.3602L23.7319 90.5384L28.0884 86.1819L25.9101 84.0036Z" fill="#3730A3"/>
<path d="M30.2678 92.7171L28.0893 94.8956L30.2678 97.0741L32.4464 94.8956L30.2678 92.7171Z" fill="#3730A3"/>
<path d="M25.9111 44.7943L23.7329 46.9725L25.9114 49.151L28.0896 46.9728L25.9111 44.7943Z" fill="#3730A3"/>
<path d="M30.2678 88.3607L28.0897 90.5389L30.2678 92.7171L32.446 90.5389L30.2678 88.3607Z" fill="#3730A3"/>
<path d="M25.9114 49.151L21.5547 53.5077L23.7329 55.6859L28.0896 51.3292L25.9114 49.151Z" fill="#3730A3"/>
<path d="M38.9811 27.368L34.6245 31.7246L36.8026 33.9028L41.1593 29.5462L38.9811 27.368Z" fill="#3730A3"/>
<path d="M49.8727 3.40671L43.3378 9.94159L45.5159 12.1198L52.0508 5.58489L49.8727 3.40671Z" fill="#3730A3"/>
<path d="M43.3361 18.656L47.6926 14.2995L45.5144 12.1212L38.9796 18.656L41.1579 20.8342L36.8014 25.1907L38.9796 27.369L45.5144 20.8342L43.3361 18.656Z" fill="#3730A3"/>
<path d="M258.99 55.6862L256.812 57.8643L263.347 64.3992L265.525 62.221L258.99 55.6862Z" fill="#3730A3"/>
<path d="M115.222 81.8259L113.044 84.0041L115.222 86.1823L117.4 84.0041L115.222 81.8259Z" fill="#3730A3"/>
<path d="M226.316 171.137L224.138 173.315L226.316 175.493L228.494 173.315L226.316 171.137Z" fill="#3730A3"/>
<path d="M235.029 153.71L232.851 155.888L235.029 158.067L237.207 155.888L235.029 153.71Z" fill="#3730A3"/>
<path d="M110.865 77.4693L106.509 81.826L108.687 84.0041L113.044 79.6475L110.865 77.4693Z" fill="#3730A3"/>
<path d="M115.222 68.7559L108.687 75.2908L110.865 77.4693L117.4 70.9344L115.222 68.7559Z" fill="#3730A3"/>
<path d="M252.456 140.64L243.742 149.353L245.921 151.532L254.634 142.818L252.456 140.64Z" fill="#3730A3"/>
<path d="M171.858 134.105L169.68 136.284L180.571 147.175L182.749 144.997L171.858 134.105Z" fill="#3730A3"/>
<path d="M274.239 110.144L272.06 112.322L274.239 114.501L276.417 112.322L274.239 110.144Z" fill="#3730A3"/>
<path d="M248.099 153.71L245.92 155.888L248.099 158.067L250.277 155.888L248.099 153.71Z" fill="#3730A3"/>
<path d="M272.061 116.679L267.704 121.035L269.882 123.214L274.239 118.857L272.061 116.679Z" fill="#3730A3"/>
<path d="M248.099 158.067L245.921 160.245L248.099 162.423L250.277 160.245L248.099 158.067Z" fill="#3730A3"/>
<path d="M269.882 171.137L267.704 173.315L269.882 175.493L272.06 173.315L269.882 171.137Z" fill="#3730A3"/>
<path d="M178.393 57.8644L160.966 75.2907L163.145 77.4692L180.571 60.0429L178.393 57.8644Z" fill="#3730A3"/>
<path d="M150.075 33.9028L147.897 36.081L150.075 38.2595L152.253 36.0813L150.075 33.9028Z" fill="#3730A3"/>
<path d="M184.928 73.1123L180.571 77.469L182.75 79.6475L187.106 75.2908L184.928 73.1123Z" fill="#3730A3"/>
<path d="M241.564 129.748L237.207 134.105L239.386 136.284L243.743 131.927L241.564 129.748Z" fill="#3730A3"/>
<path d="M191.463 75.2907L189.285 77.4689L191.463 79.6474L193.641 77.4693L191.463 75.2907Z" fill="#3730A3"/>
<path d="M141.362 29.5461L139.183 31.7246L141.362 33.9028L143.54 31.7243L141.362 29.5461Z" fill="#3730A3"/>
<path d="M213.246 171.137L211.068 173.315L213.246 175.493L215.424 173.315L213.246 171.137Z" fill="#3730A3"/>
<path d="M189.285 147.175L187.106 149.354L191.463 153.71L193.641 151.532L189.285 147.175Z" fill="#3730A3"/>
<path d="M200.176 153.71L197.998 155.888L200.176 158.067L202.354 155.888L200.176 153.71Z" fill="#3730A3"/>
<path d="M119.579 60.0425L115.222 64.3992L117.4 66.5774L121.757 62.2207L119.579 60.0425Z" fill="#3730A3"/>
<path d="M280.774 125.392L278.595 127.571L280.774 129.749L282.952 127.57L280.774 125.392Z" fill="#3730A3"/>
<path d="M134.827 40.4377L132.648 42.6162L134.827 44.7947L137.005 42.6162L134.827 40.4377Z" fill="#3730A3"/>
<path d="M363.549 16.4764L361.371 18.6546L363.55 20.8331L365.728 18.6549L363.549 16.4764Z" fill="#3730A3"/>
<path d="M287.309 49.1511L285.13 51.3296L287.308 53.5077L289.487 51.3292L287.309 49.1511Z" fill="#3730A3"/>
<path d="M324.339 94.8949L322.16 97.0732L326.517 101.43L330.873 97.0732L328.695 94.8949L326.517 97.0732L324.339 94.8949Z" fill="#3730A3"/>
<path d="M230.672 5.58492L228.494 7.76309L230.673 9.9416L232.851 7.76343L230.672 5.58492Z" fill="#3730A3"/>
<path d="M235.029 9.94161L232.851 12.1198L241.564 20.8331L243.742 18.655L235.029 9.94161Z" fill="#3730A3"/>
<path d="M252.456 23.0113L250.277 25.1898L267.703 42.6162L269.882 40.4376L252.456 23.0113Z" fill="#3730A3"/>
<path d="M254.634 116.679L243.742 127.57L245.921 129.749L256.812 118.857L254.634 116.679Z" fill="#3730A3"/>
<path d="M363.55 20.8332L361.371 23.0116L363.549 25.1898L365.728 23.0113L363.55 20.8332Z" fill="#3730A3"/>
<path d="M363.55 12.1197L361.371 14.2983L363.549 16.4765L365.728 14.2979L363.55 12.1197Z" fill="#3730A3"/>
<path d="M352.656 -7.48312L354.838 -9.66503L348.303 -16.1998L350.481 -18.3781L289.49 -79.3692L287.312 -77.191L278.595 -85.9077L276.413 -83.7257L269.878 -90.2605L267.704 -88.0859L263.347 -92.4424L261.169 -90.2642L258.991 -92.4424L256.809 -90.2605L252.452 -94.617L250.274 -92.4388L245.918 -96.7953L243.739 -94.617L239.383 -98.9735L237.205 -96.7953L228.492 -105.508L226.313 -103.33L219.779 -109.865L217.6 -107.687L215.422 -109.865L213.244 -107.687L211.066 -109.865L208.887 -107.687L206.709 -109.865L204.531 -107.687L202.353 -109.865L200.174 -107.687L197.996 -109.865L195.818 -107.687L193.639 -109.865L189.283 -105.508L187.105 -107.687L184.926 -105.508L182.748 -107.687L178.392 -103.33L176.213 -105.508L171.857 -101.152L169.679 -103.33L165.322 -98.9735L163.144 -101.152L158.787 -96.7953L156.609 -98.9735L150.074 -92.4388L147.896 -94.617L141.361 -88.0822L139.183 -90.2605L132.648 -83.7257L130.47 -85.904L121.757 -77.191L119.579 -79.3692L106.509 -66.2997L108.687 -64.1214L117.4 -72.8344L119.579 -70.6562L128.292 -79.3692L130.47 -77.191L139.183 -85.904L141.361 -83.7257L147.896 -90.2605L150.074 -88.0822L154.431 -92.4388L156.609 -90.2605L163.144 -96.7953L165.322 -94.617L169.679 -98.9735L171.857 -96.7953L176.213 -101.152L178.392 -98.9735L182.748 -103.33L184.926 -101.152L187.105 -103.33L189.283 -101.152L193.639 -105.508L195.818 -103.33L197.996 -105.508L200.174 -103.33L202.353 -105.508L204.531 -103.33L206.709 -105.508L208.887 -103.33L211.066 -105.508L213.244 -103.33L215.422 -105.508L219.779 -101.152L221.957 -103.33L228.492 -96.7953L230.67 -98.9735L239.383 -90.2605L241.561 -92.4388L245.918 -88.0823L248.096 -90.2605L250.274 -88.0823L252.452 -90.2605L256.809 -85.904L258.987 -88.0823L263.344 -83.7257L265.526 -85.9076L269.886 -81.5475L272.064 -83.7257L278.599 -77.191L280.773 -79.3656L313.447 -46.6917L315.629 -48.8736L341.768 -22.7346L339.586 -20.5527L350.478 -9.66138L348.303 -7.48677L352.66 -3.13025L350.481 -0.951997L354.838 3.4045L352.656 5.58641L354.834 7.76466L352.656 9.94292L357.012 14.2994L354.834 16.4777L357.012 18.6559L354.834 20.8342L357.012 23.0125L352.656 27.369L354.834 29.5472L352.656 31.7255L354.834 33.9037L350.478 38.2603L352.656 40.4385L350.478 42.6168L352.656 44.795L357.012 40.4385L354.834 38.2603L359.191 33.9037L357.012 31.7255L359.191 29.5472L357.012 27.369L361.369 23.0125L359.191 20.8342L361.369 18.6559L359.191 16.4777L361.369 14.2994L359.191 12.1212L361.373 9.93927L357.016 5.58276L359.194 3.4045L354.838 -0.951997L357.012 -3.12661L352.656 -7.48312Z" fill="#3730A3"/>
<path d="M285.13 164.602L282.952 166.78L285.13 168.958L287.308 166.78L285.13 164.602Z" fill="#3730A3"/>
<path d="M265.525 127.57L254.634 138.462L256.812 140.64L267.704 129.749L265.525 127.57Z" fill="#3730A3"/>
<path d="M322.161 127.571L317.805 131.927L319.983 134.105L324.34 129.749L322.161 127.571Z" fill="#3730A3"/>
<path d="M221.959 1.22826L219.781 3.40646L224.138 7.76312L226.316 5.58491L221.959 1.22826Z" fill="#3730A3"/>
<path d="M315.627 138.462L293.844 160.245L296.022 162.423L317.805 140.64L315.627 138.462Z" fill="#3730A3"/>
<path d="M269.882 136.284L267.704 138.462L269.882 140.64L272.061 138.462L269.882 136.284Z" fill="#3730A3"/>
<path d="M276.417 121.035L274.239 123.214L276.417 125.392L278.595 123.214L276.417 121.035Z" fill="#3730A3"/>
<path d="M326.518 118.857L322.161 123.213L324.34 125.392L328.697 121.035L326.518 118.857Z" fill="#3730A3"/>
<path d="M313.448 97.0738L311.27 99.2523L313.448 101.43L315.627 99.252L313.448 97.0738Z" fill="#3730A3"/>
<path d="M150.075 20.8331L143.54 27.368L145.718 29.5461L152.253 23.0113L150.075 20.8331Z" fill="#3730A3"/>
<path d="M335.231 14.298L333.053 16.4765L335.231 18.655L337.41 16.4765L335.231 14.298Z" fill="#3730A3"/>
<path d="M333.053 73.1126L330.875 75.2911L333.053 77.4693L335.232 75.2907L333.053 73.1126Z" fill="#3730A3"/>
<path d="M276.417 29.5465L274.239 31.7247L276.417 33.9029L278.595 31.7247L276.417 29.5465Z" fill="#3730A3"/>
<path d="M282.952 40.438L280.774 42.6162L282.952 44.7944L285.13 42.6162L282.952 40.438Z" fill="#3730A3"/>
<path d="M326.518 70.9344L324.34 73.1126L326.518 75.2908L328.696 73.1126L326.518 70.9344Z" fill="#3730A3"/>
<path d="M361.371 -3.1284L359.193 -0.94989L361.371 1.22828L363.549 -0.950224L361.371 -3.1284Z" fill="#3730A3"/>
<path d="M348.301 1.22823L346.123 3.40643L348.301 5.58494L350.48 3.40674L348.301 1.22823Z" fill="#3730A3"/>
<path d="M258.99 81.8256L256.812 84.0041L258.99 86.1826L261.169 84.0041L258.99 81.8256Z" fill="#3730A3"/>
<path d="M202.354 138.462L200.176 140.64L202.355 142.818L204.533 140.64L202.354 138.462Z" fill="#3730A3"/>
<path d="M202.354 60.0429L200.176 62.2211L202.354 64.3992L204.533 62.2211L202.354 60.0429Z" fill="#3730A3"/>
<path d="M191.463 127.57L189.285 129.748L191.463 131.927L193.641 129.749L191.463 127.57Z" fill="#3730A3"/>
<path d="M169.68 5.58461L163.145 12.1198L165.323 14.2983L171.858 7.76311L169.68 5.58461Z" fill="#3730A3"/>
<path d="M263.347 99.252L258.99 103.609L261.169 105.787L265.526 101.431L263.347 99.252Z" fill="#3730A3"/>
<path d="M178.393 79.6475L174.036 84.0041L176.215 86.1826L180.571 81.826L178.393 79.6475Z" fill="#3730A3"/>
<path d="M171.858 12.1198L169.68 14.298L171.858 16.4765L174.036 14.2983L171.858 12.1198Z" fill="#3730A3"/>
<path d="M224.137 134.105L221.959 136.284L224.137 138.462L226.316 136.284L224.137 134.105Z" fill="#3730A3"/>
<path d="M158.788 25.1895L156.61 27.368L158.788 29.5465L160.967 27.368L158.788 25.1895Z" fill="#3730A3"/>
<path d="M361.369 31.7255L359.191 33.9038L361.369 36.082L365.725 31.7255L363.547 29.5472L365.725 27.369L363.547 25.1907L359.191 29.5472L361.369 31.7255Z" fill="#3730A3"/>
<path d="M235.029 136.284L230.672 140.64L232.851 142.819L237.207 138.462L235.029 136.284Z" fill="#3730A3"/>
<path d="M130.47 44.7943L121.757 53.5077L123.935 55.6862L132.649 46.9728L130.47 44.7943Z" fill="#3730A3"/>
<path d="M180.571 177.672L178.393 179.85L180.571 182.028L182.75 179.85L180.571 177.672Z" fill="#3730A3"/>
<path d="M110.865 160.245L108.687 162.423L115.222 168.958L117.4 166.78L110.865 160.245Z" fill="#3730A3"/>
<path d="M206.713 16.4777L208.891 14.2994L211.069 16.4777L213.247 14.2994L208.891 9.94292L204.534 14.2994L206.713 16.4777Z" fill="#3730A3"/>
<path d="M180.571 155.888L178.393 158.067L180.571 160.245L182.75 158.067L180.571 155.888Z" fill="#3730A3"/>
<path d="M104.33 149.354L102.152 151.532L108.687 158.067L110.865 155.888L104.33 149.354Z" fill="#3730A3"/>
<path d="M132.649 164.601L130.47 166.78L132.649 168.958L134.827 166.78L132.649 164.601Z" fill="#3730A3"/>
<path d="M200.176 18.655L197.998 20.8331L200.176 23.0113L202.354 20.8331L200.176 18.655Z" fill="#3730A3"/>
<path d="M261.169 105.787L256.812 110.144L258.99 112.322L263.347 107.965L261.169 105.787Z" fill="#3730A3"/>
<path d="M243.743 36.0813L241.564 38.2599L256.812 53.5077L258.99 51.3292L243.743 36.0813Z" fill="#3730A3"/>
<path d="M195.819 66.5777L193.641 68.7559L195.819 70.9341L197.998 68.7559L195.819 66.5777Z" fill="#3730A3"/>
<path d="M217.603 27.368L215.424 29.5462L217.603 31.7247L219.781 29.5465L217.603 27.368Z" fill="#3730A3"/>
<path d="M226.316 23.0116L224.138 25.1898L230.673 31.7246L232.851 29.5464L226.316 23.0116Z" fill="#3730A3"/>
<path d="M341.765 116.678L339.586 118.856L341.765 121.034L346.121 116.678L343.943 114.499L348.299 110.143L346.121 107.964L339.586 114.499L341.765 116.678Z" fill="#3730A3"/>
<path d="M171.858 107.966L169.68 110.144L180.572 121.035L182.75 118.857L171.858 107.966Z" fill="#3730A3"/>
<path d="M169.68 97.0738L167.501 99.2523L169.68 101.431L171.858 99.2523L169.68 97.0738Z" fill="#3730A3"/>
<path d="M169.68 101.431L167.502 103.609L171.858 107.966L174.036 105.787L169.68 101.431Z" fill="#3730A3"/>
<path d="M267.704 86.1826L263.347 90.5393L265.525 92.7175L269.882 88.3608L267.704 86.1826Z" fill="#3730A3"/>
<path d="M265.525 92.7175L263.347 94.8956L265.525 97.0738L267.704 94.8956L265.525 92.7175Z" fill="#3730A3"/>
<path d="M269.882 101.43L265.526 105.786L267.704 107.964L261.169 114.499L263.347 116.677L252.456 127.569L254.634 129.747L245.921 138.46L243.743 136.282L241.565 138.46L243.743 140.638L241.565 142.817L239.387 140.638L230.674 149.351L228.495 147.173L224.139 151.53L221.96 149.351L219.779 151.533L217.6 149.355L215.426 151.53L213.247 149.351L211.069 151.53L206.713 147.173L204.531 149.355L195.818 140.642L193.64 142.82L171.857 121.038L174.035 118.859L165.322 110.146L167.504 107.964L165.326 105.786L167.504 103.608L163.148 99.2514L165.322 97.0768L163.144 94.8986L167.504 90.5384L165.326 88.3602L160.966 92.7203L158.787 90.5421L160.969 88.3602L158.791 86.1819L154.435 90.5384L156.613 92.7167L152.253 97.0769L156.609 101.433L158.791 99.2514L156.613 97.0732L158.791 94.8949L160.969 97.0732L158.791 99.2514L160.969 101.43L158.787 103.612L163.144 107.968L160.966 110.146L167.5 116.681L165.322 118.859L197.996 151.533L200.174 149.355L204.531 153.711L206.709 151.533L211.066 155.89L213.247 153.708L215.426 155.886L217.604 153.708L219.782 155.886L221.957 153.712L224.135 155.89L228.495 151.53L230.674 153.708L237.208 147.173L239.387 149.351L261.169 127.569L258.991 125.391L267.704 116.677L265.526 114.499L272.06 107.964L269.882 105.786L274.239 101.43L272.06 99.2514L274.239 97.0732L272.06 94.8949L267.704 99.2514L269.882 101.43Z" fill="#3730A3"/>
<path d="M156.61 101.43L154.432 103.609L156.61 105.787L158.788 103.609L156.61 101.43Z" fill="#3730A3"/>
<path d="M156.61 105.787L154.432 107.966L158.788 112.322L160.967 110.144L156.61 105.787Z" fill="#3730A3"/>
<path d="M152.253 88.3608L150.075 90.5389L152.253 92.7171L154.432 90.539L152.253 88.3608Z" fill="#3730A3"/>
<path d="M160.967 79.6475L156.61 84.0041L158.788 86.1823L163.145 81.8256L160.967 79.6475Z" fill="#3730A3"/>
<path d="M191.465 66.5776L195.821 62.2211L193.643 60.0428L191.465 62.2211L189.287 60.0428L184.93 64.3993L182.752 62.2211L167.504 77.4689L169.682 79.6471L163.148 86.1819L165.326 88.3602L189.287 64.3993L191.465 66.5776Z" fill="#3730A3"/>
<path d="M171.858 90.539L167.502 94.8957L169.68 97.0738L174.036 92.7172L171.858 90.539Z" fill="#3730A3"/>
<path d="M99.9736 105.787L95.6169 110.144L97.7955 112.322L102.152 107.966L99.9736 105.787Z" fill="#3730A3"/>
<path d="M104.331 92.7175L99.9739 97.0742L102.152 99.2523L106.509 94.8957L104.331 92.7175Z" fill="#3730A3"/>
<path d="M106.509 86.1823L102.152 90.539L104.331 92.7175L108.687 88.3608L106.509 86.1823Z" fill="#3730A3"/>
<path d="M102.152 99.2523L97.7954 103.609L99.9736 105.787L104.33 101.431L102.152 99.2523Z" fill="#3730A3"/>
<path d="M158.788 112.322L156.61 114.501L160.967 118.857L163.145 116.679L158.788 112.322Z" fill="#3730A3"/>
<path d="M97.7955 129.748L95.6169 131.927L97.7955 134.105L99.974 131.927L97.7955 129.748Z" fill="#3730A3"/>
<path d="M263.347 64.3992L261.169 66.5777L265.525 70.9344L267.704 68.7559L263.347 64.3992Z" fill="#3730A3"/>
<path d="M265.525 70.9344L263.347 73.1126L265.525 75.2908L267.703 73.1126L265.525 70.9344Z" fill="#3730A3"/>
<path d="M104.327 75.2906L108.684 70.9341L106.506 68.7558L99.9708 75.2906L102.149 77.4689L97.7926 81.8254L99.9708 84.0036L106.506 77.4689L104.327 75.2906Z" fill="#3730A3"/>
<path d="M104.331 144.998L102.153 142.82L104.331 140.642L99.9745 136.285L97.7962 138.464L99.9745 140.642L97.7962 142.82L102.153 147.177L104.331 144.998Z" fill="#3730A3"/>
<path d="M278.595 75.2911L276.417 77.4692L278.595 79.6474L280.774 77.4693L278.595 75.2911Z" fill="#3730A3"/>
<path d="M113.04 57.8646L123.935 46.9696L121.757 44.7914L123.935 42.6131L126.114 44.7914L128.292 42.6131L126.114 40.4349L158.787 7.76101L160.966 9.93927L171.857 -0.952014L174.035 1.22624L178.392 -3.13027L180.57 -0.952014L182.748 -3.13027L184.926 -0.952014L187.105 -3.13026L189.287 -0.948354L191.465 -3.12661L195.821 1.2299L198 -0.948354L204.534 5.58642L206.713 3.40816L217.604 14.2994L219.782 12.1212L235.03 27.369L237.208 25.1907L265.526 53.5081L263.347 55.6863L267.704 60.0428L265.526 62.2211L269.882 66.5776L267.704 68.7559L272.06 73.1124L269.882 75.2906L272.06 77.4689L269.882 79.6471L272.06 81.8254L269.882 84.0036L272.06 86.1819L269.882 88.3601L272.06 90.5384L269.882 92.7167L272.06 94.8949L276.417 90.5384L274.239 88.3601L276.417 86.1819L274.239 84.0036L276.417 81.8254L274.239 79.6471L276.417 77.4689L274.239 75.2906L276.417 73.1124L272.06 68.7559L274.239 66.5776L272.06 64.3993L274.239 62.2211L267.704 55.6863L269.882 53.5081L263.347 46.9733L265.526 44.795L248.1 27.369L245.921 29.5472L230.674 14.2994L228.495 16.4777L215.426 3.40816L213.247 5.58642L204.534 -3.12661L202.356 -0.948354L197.996 -5.30851L195.818 -3.13026L191.461 -7.48677L189.283 -5.30851L187.105 -7.48677L184.926 -5.30851L182.748 -7.48677L180.57 -5.30853L178.392 -7.48679L174.035 -3.13027L171.857 -5.30853L163.144 3.4045L160.966 1.22624L117.401 44.7914L119.579 46.9696L108.684 57.8646L110.862 60.0428L104.327 66.5776L106.506 68.7558L115.219 60.0428L113.04 57.8646Z" fill="#3730A3"/>
<path d="M267.704 81.8254L269.882 79.6472L267.704 77.4689L263.347 81.8254L267.704 86.1819L269.882 84.0037L267.704 81.8254Z" fill="#3730A3"/>
<path d="M86.9039 140.64L84.7254 142.818L86.9039 144.997L89.0824 142.818L86.9039 140.64Z" fill="#3730A3"/>
<path d="M84.7254 90.539L82.5472 92.7172L84.7257 94.8957L86.9039 92.7175L84.7254 90.539Z" fill="#3730A3"/>
<path d="M363.549 7.76311L361.371 9.94125L363.55 12.1198L365.728 9.94162L363.549 7.76311Z" fill="#3730A3"/>
<path d="M341.766 121.035L337.41 125.392L339.588 127.57L343.944 123.214L341.766 121.035Z" fill="#3730A3"/>
<path d="M84.7257 134.105L82.5475 136.284L86.9039 140.64L89.0821 138.462L84.7257 134.105Z" fill="#3730A3"/>
<path d="M80.3691 121.035L78.1906 123.214L80.3687 125.392L82.5472 123.213L80.3691 121.035Z" fill="#3730A3"/>
<path d="M326.518 149.353L313.448 162.423L315.627 164.602L328.697 151.532L326.518 149.353Z" fill="#3730A3"/>
<path d="M337.41 129.748L333.053 134.105L335.232 136.284L339.588 131.927L337.41 129.748Z" fill="#3730A3"/>
<path d="M160.967 118.857L158.788 121.036L165.323 127.571L167.502 125.392L160.967 118.857Z" fill="#3730A3"/>
<path d="M354.836 121.035L352.658 123.213L354.836 125.392L357.015 123.214L354.836 121.035Z" fill="#3730A3"/>
<path d="M350.479 116.679L348.301 118.857L350.48 121.035L352.658 118.857L350.479 116.679Z" fill="#3730A3"/>
<path d="M374.441 23.0113L372.263 25.1898L374.441 27.368L376.619 25.1894L374.441 23.0113Z" fill="#3730A3"/>
<path d="M333.053 138.462L328.697 142.818L330.875 144.997L335.231 140.64L333.053 138.462Z" fill="#3730A3"/>
<path d="M278.595 70.9341L276.417 73.1126L278.595 75.2911L280.774 73.1126L278.595 70.9341Z" fill="#3730A3"/>
<path d="M280.773 86.1819L282.952 84.0037L285.13 86.1819L287.308 84.0037L282.952 79.6472L280.773 81.8254L278.595 79.6472L276.417 81.8254L280.773 86.1819Z" fill="#3730A3"/>
<path d="M278.595 88.3608L276.417 90.539L278.595 92.7171L280.774 90.539L278.595 88.3608Z" fill="#3730A3"/>
<path d="M274.239 105.786L276.417 107.964L280.773 103.608L276.417 99.2514L274.239 101.43L276.417 103.608L274.239 105.786Z" fill="#3730A3"/>
<path d="M278.595 92.7171L276.417 94.8956L278.595 97.0741L280.774 94.8956L278.595 92.7171Z" fill="#3730A3"/>
<path d="M93.4388 81.8256L89.0821 86.1823L91.2606 88.3608L95.6173 84.0041L93.4388 81.8256Z" fill="#3730A3"/>
<path d="M269.882 44.7947L267.704 46.9729L274.239 53.5077L276.417 51.3295L269.882 44.7947Z" fill="#3730A3"/>
<path d="M278.595 66.5777L276.417 68.7559L278.595 70.9341L280.774 68.7559L278.595 66.5777Z" fill="#3730A3"/>
<path d="M95.6172 75.2908L91.2606 79.6474L93.4387 81.8256L97.7954 77.469L95.6172 75.2908Z" fill="#3730A3"/>
<path d="M274.239 53.5077L272.06 55.6859L276.417 60.0426L278.595 57.8644L274.239 53.5077Z" fill="#3730A3"/>
<path d="M276.417 60.0425L274.239 62.221L276.417 64.3992L278.595 62.2207L276.417 60.0425Z" fill="#3730A3"/>
<path d="M350.479 20.8331L348.301 23.0113L350.48 25.1898L352.658 23.0116L350.479 20.8331Z" fill="#3730A3"/>
<path d="M339.588 75.2907L337.41 77.4689L339.588 79.6474L341.766 77.4692L339.588 75.2907Z" fill="#3730A3"/>
<path d="M341.766 64.3995L337.41 68.756L339.588 70.9341L343.945 66.5777L341.766 64.3995Z" fill="#3730A3"/>
<path d="M339.588 79.6475L335.231 84.0041L337.41 86.1823L341.766 81.8257L339.588 79.6475Z" fill="#3730A3"/>
<path d="M339.588 70.9341L337.41 73.1126L339.588 75.2908L341.766 73.1122L339.588 70.9341Z" fill="#3730A3"/>
<path d="M337.41 90.5392L333.053 94.8956L335.231 97.0738L339.588 92.7174L337.41 90.5392Z" fill="#3730A3"/>
<path d="M337.41 86.1823L335.231 88.3608L337.41 90.5393L339.588 88.3608L337.41 86.1823Z" fill="#3730A3"/>
<path d="M346.123 46.9725L341.766 51.3292L343.945 53.5077L348.301 49.151L346.123 46.9725Z" fill="#3730A3"/>
<path d="M346.123 42.6162L343.945 44.7944L346.123 46.9725L348.301 44.7944L346.123 42.6162Z" fill="#3730A3"/>
<path d="M350.478 51.3298L346.121 55.6863L348.299 57.8646L346.121 60.0428L348.299 62.2211L352.656 57.8646L350.478 55.6863L354.834 51.3298L352.656 49.1515L354.834 46.9733L352.656 44.795L348.299 49.1515L350.478 51.3298Z" fill="#3730A3"/>
<path d="M341.766 60.0426L339.588 62.221L341.766 64.3995L343.945 62.2211L341.766 60.0426Z" fill="#3730A3"/>
<path d="M335.231 97.0738L330.875 101.43L333.053 103.609L337.41 99.2523L335.231 97.0738Z" fill="#3730A3"/>
<path d="M343.945 53.5077L339.588 57.8644L341.766 60.0426L346.123 55.6858L343.945 53.5077Z" fill="#3730A3"/>
<path d="M359.193 42.6161L357.015 44.7943L359.193 46.9728L361.371 44.7947L359.193 42.6161Z" fill="#3730A3"/>
<path d="M354.836 60.0426L352.658 62.2207L354.836 64.3992L357.015 62.2211L354.836 60.0426Z" fill="#3730A3"/>
<path d="M357.015 53.5077L352.658 57.8644L354.836 60.0426L359.193 55.6859L357.015 53.5077Z" fill="#3730A3"/>
<path d="M346.121 68.7559L343.943 70.9341L346.121 73.1124L350.478 68.7559L348.299 66.5776L350.478 64.3993L348.299 62.2211L343.943 66.5776L346.121 68.7559Z" fill="#3730A3"/>
<path d="M339.586 105.786L343.943 101.43L341.765 99.2514L346.121 94.8949L343.943 92.7167L346.121 90.5384L343.943 88.3602L348.299 84.0036L346.121 81.8254L348.299 79.6471L346.121 77.4689L348.299 75.2906L346.121 73.1124L341.765 77.4689L343.943 79.6471L341.765 81.8254L343.943 84.0036L339.586 88.3602L341.765 90.5384L339.586 92.7167L341.765 94.8949L337.408 99.2514L339.586 101.43L335.23 105.786L337.408 107.964L335.23 110.143L337.408 112.321L341.765 107.964L339.586 105.786Z" fill="#3730A3"/>
<path d="M359.193 46.9729L354.836 51.3296L357.015 53.5077L361.371 49.1511L359.193 46.9729Z" fill="#3730A3"/>
<path d="M354.836 64.3992L350.48 68.756L352.658 70.9342L357.015 66.5774L354.836 64.3992Z" fill="#3730A3"/>
<path d="M346.123 103.609L343.945 105.787L346.123 107.965L348.301 105.787L346.123 103.609Z" fill="#3730A3"/>
<path d="M348.299 97.0732L343.943 101.43L346.121 103.608L348.299 101.43L350.478 103.608L352.656 101.43L350.478 99.2514L352.656 97.0732L348.299 92.7167L346.121 94.8949L348.299 97.0732Z" fill="#3730A3"/>
<path d="M350.478 81.8254L348.299 84.0037L350.478 86.1819L354.834 81.8254L352.656 79.6472L354.834 77.4689L352.656 75.2906L348.299 79.6472L350.478 81.8254Z" fill="#3730A3"/>
<path d="M350.48 86.1826L346.123 90.5393L348.301 92.7175L352.658 88.3608L350.48 86.1826Z" fill="#3730A3"/>
<path d="M352.658 70.9342L350.479 73.1126L352.658 75.2911L354.836 73.1127L352.658 70.9342Z" fill="#3730A3"/>
<path d="M89.0795 94.8949L86.9013 97.0732L84.723 94.8949L82.5447 97.0732L86.9049 101.433L91.2614 97.0768L89.0795 94.8949Z" fill="#3730A3"/>
<path d="M97.7954 125.392L95.6172 127.57L97.7954 129.748L99.9736 127.57L97.7954 125.392Z" fill="#3730A3"/>
<path d="M84.7254 129.749L82.5472 131.927L84.7258 134.105L86.9039 131.927L84.7254 129.749Z" fill="#3730A3"/>
<path d="M84.7257 116.679L82.5472 118.857L84.7254 121.035L86.9039 118.857L84.7257 116.679Z" fill="#3730A3"/>
<path d="M86.9049 110.146L89.0832 107.968L86.9013 105.786L82.5448 110.143L84.7267 112.325L82.5484 114.503L84.7267 116.681L89.0832 112.325L86.9049 110.146Z" fill="#3730A3"/>
<path d="M84.7254 121.035L82.5472 123.214L84.7257 125.392L86.9039 123.214L84.7254 121.035Z" fill="#3730A3"/>
<path d="M84.7258 125.392L82.5472 127.571L84.7254 129.749L86.9039 127.57L84.7258 125.392Z" fill="#3730A3"/>
<path d="M86.9039 101.431L84.7257 103.609L86.9039 105.787L89.0821 103.609L86.9039 101.431Z" fill="#3730A3"/>
<path d="M348.302 36.0813L343.945 40.438L346.123 42.6162L350.48 38.2595L348.302 36.0813Z" fill="#3730A3"/>
<path d="M97.7958 121.035L95.6172 123.214L97.7954 125.392L99.9739 123.214L97.7958 121.035Z" fill="#3730A3"/>
<path d="M91.2606 88.3608L86.9039 92.7175L89.0821 94.8957L93.4388 90.539L91.2606 88.3608Z" fill="#3730A3"/>
<path d="M91.2615 97.0768L93.4361 99.2514L91.2578 101.43L93.4397 103.612L97.7962 99.2551L95.6143 97.0732L99.9708 92.7167L97.7962 90.5421L102.153 86.1855L99.9708 84.0036L93.4361 90.5384L95.618 92.7203L91.2615 97.0768Z" fill="#3730A3"/>
<path d="M97.7955 112.322L95.6172 114.501L97.7954 116.679L99.9737 114.5L97.7955 112.322Z" fill="#3730A3"/>
<path d="M97.7954 116.679L95.6172 118.857L97.7958 121.035L99.9739 118.857L97.7954 116.679Z" fill="#3730A3"/>
<path d="M350.48 16.4764L348.301 18.6549L350.479 20.8331L352.658 18.6546L350.48 16.4764Z" fill="#3730A3"/>
<path d="M326.517 136.282L311.269 151.53L313.447 153.708L309.091 158.064L306.912 155.886L304.734 158.064L306.912 160.243L304.734 162.421L302.556 160.243L291.665 171.134L289.486 168.956L282.952 175.49L280.773 173.312L276.417 177.669L274.239 175.49L269.882 179.847L267.704 177.669L263.347 182.025L261.169 179.847L256.813 184.203L254.634 182.025L252.452 184.207L250.274 182.029L245.921 186.382L243.743 184.203L241.561 186.385L239.383 184.207L237.205 186.385L235.026 184.207L230.67 188.564L228.492 186.385L226.313 188.564L224.135 186.385L221.957 188.564L219.779 186.385L217.6 188.564L215.422 186.385L213.244 188.564L211.066 186.385L206.709 190.742L204.531 188.564L202.353 190.742L200.174 188.564L197.996 190.742L195.818 188.564L193.639 190.742L191.461 188.564L189.283 190.742L187.105 188.564L184.926 190.742L182.748 188.564L180.57 190.742L178.392 188.564L176.213 190.742L174.035 188.564L171.857 190.742L169.679 188.564L167.5 190.742L165.322 188.564L163.144 190.742L160.966 188.564L158.787 190.742L154.431 186.385L152.253 188.564L150.074 186.385L147.896 188.564L143.54 184.207L141.361 186.385L139.183 184.207L137.005 186.385L130.47 179.851L128.292 182.029L121.757 175.494L119.579 177.672L99.9745 158.068L102.153 155.89L97.7962 151.533L99.9745 149.355L95.618 144.998L97.7962 142.82L93.4397 138.464L95.618 136.285L93.4397 134.107L95.618 131.929L93.4397 129.751L95.618 127.572L93.4397 125.394L95.618 123.216L91.2615 118.859L95.618 114.503L93.4397 112.325L95.618 110.146L93.4397 107.968L95.618 105.79L93.4397 103.612L89.0832 107.968L91.2615 110.146L89.0832 112.325L91.2615 114.503L86.9049 118.859L89.0832 121.038L86.9049 123.216L89.0832 125.394L86.9049 127.572L89.0832 129.751L86.9049 131.929L91.2615 136.285L89.0832 138.464L93.4397 142.82L91.2615 144.998L95.618 149.355L93.4397 151.533L97.7962 155.89L95.618 158.068L106.509 168.959L104.331 171.138L110.866 177.672L113.044 175.494L123.935 186.385L126.114 184.207L130.47 188.564L132.648 186.385L137.005 190.742L139.183 188.564L143.54 192.92L145.718 190.742L147.896 192.92L150.074 190.742L154.431 195.098L156.609 192.92L158.787 195.098L160.966 192.92L163.144 195.098L165.322 192.92L167.5 195.098L169.679 192.92L171.857 195.098L174.035 192.92L176.213 195.098L178.392 192.92L180.57 195.098L182.748 192.92L184.926 195.098L187.105 192.92L189.283 195.098L191.461 192.92L193.639 195.098L195.818 192.92L197.996 195.098L200.174 192.92L202.353 195.098L204.531 192.92L206.709 195.098L208.887 192.92L211.066 195.098L215.422 190.742L217.6 192.92L219.779 190.742L221.957 192.92L224.135 190.742L226.313 192.92L228.492 190.742L230.67 192.92L232.848 190.742L235.026 192.92L239.383 188.564L241.561 190.742L243.739 188.564L245.918 190.742L250.278 186.382L252.456 188.56L254.631 186.385L256.809 188.564L261.169 184.203L263.347 186.382L265.526 184.203L267.704 186.382L272.06 182.025L274.239 184.203L280.773 177.669L282.952 179.847L287.308 175.49L289.486 177.669L298.199 168.956L300.378 171.134L322.16 149.351L319.982 147.173L330.873 136.282L328.695 134.104L333.052 129.747L330.873 127.569L324.339 134.104L326.517 136.282Z" fill="#3730A3"/>
<path d="M350.48 29.5461L346.123 33.9028L348.302 36.0813L352.658 31.7247L350.48 29.5461Z" fill="#3730A3"/>
<path d="M350.479 12.1198L348.301 14.298L350.48 16.4765L352.658 14.2983L350.479 12.1198Z" fill="#3730A3"/>
<path d="M350.48 25.1898L348.302 27.368L350.48 29.5462L352.658 27.368L350.48 25.1898Z" fill="#3730A3"/>
<path d="M361.371 36.0814L357.015 40.438L359.193 42.6162L363.549 38.2595L361.371 36.0814Z" fill="#3730A3"/>
<path d="M330.875 110.144L326.518 114.5L328.696 116.679L333.053 112.322L330.875 110.144Z" fill="#3730A3"/>
<path d="M330.873 118.856L333.052 121.034L328.695 125.391L330.873 127.569L337.408 121.034L335.23 118.856L339.586 114.499L337.408 112.321L330.873 118.856Z" fill="#3730A3"/>
<path d="M333.053 103.609L328.697 107.966L330.875 110.144L335.232 105.787L333.053 103.609Z" fill="#3730A3"/>
<path d="M333.053 86.1826L330.875 88.3608L333.053 90.539L335.231 88.3608L333.053 86.1826Z" fill="#3730A3"/>
<path d="M350.48 7.76317L348.301 9.94162L350.479 12.1198L352.658 9.94134L350.48 7.76317Z" fill="#3730A3"/>
</g>
</g>
<defs>
<clipPath id="clip0_109_190">
<path d="M0 0H368C374.627 0 380 5.37258 380 12V240H0V0Z" fill="white"/>
</clipPath>
<clipPath id="clip1_109_190">
<rect width="516" height="516" fill="white" transform="translate(-195.867 84) rotate(-45)"/>
</clipPath>
</defs>
</svg>
