<svg width="380" height="160" viewBox="0 0 380 160" fill="none" xmlns="http://www.w3.org/2000/svg">
<g clip-path="url(#clip0_109_190)">
<path d="M128.602 107.177L132.199 107.177L132.199 99.972L128.602 99.972L128.602 107.177Z" fill="#3730A3"/>
<path d="M168.173 85.5615L171.77 85.5615L171.77 81.959L168.173 81.959L168.173 85.5615Z" fill="#3730A3"/>
<path d="M175.368 85.5615L178.965 85.5615L178.965 81.959L175.368 81.959L175.368 85.5615Z" fill="#3730A3"/>
<path d="M164.576 96.3696L168.173 96.3696L168.173 89.1641L164.576 89.1641L164.576 96.3696Z" fill="#3730A3"/>
<path d="M178.965 107.177L182.562 107.177L182.562 103.575L178.965 103.575L178.965 107.177Z" fill="#3730A3"/>
<path d="M125.005 114.383L128.602 114.383L128.602 110.78L125.005 110.78L125.005 114.383Z" fill="#3730A3"/>
<path d="M182.562 125.191L186.16 125.191L186.16 121.588L182.562 121.588L182.562 125.191Z" fill="#3730A3"/>
<path d="M171.77 114.383L175.368 114.383L175.368 110.78L171.77 110.78L171.77 114.383Z" fill="#3730A3"/>
<path d="M182.562 53.1373L186.16 53.1373L186.16 49.5348L182.562 49.5348L182.562 53.1373Z" fill="#3730A3"/>
<path d="M132.199 114.383L135.797 114.383L135.797 110.78L132.199 110.78L132.199 114.383Z" fill="#3730A3"/>
<path d="M164.576 74.7534L168.173 74.7534L168.173 71.151L164.576 71.151L164.576 74.7534Z" fill="#3730A3"/>
<path d="M186.16 92.7665L189.757 92.7665L189.757 85.5615L186.16 85.5615L186.16 92.7665Z" fill="#3730A3"/>
<path d="M146.589 110.78L150.187 110.78L150.187 107.177L146.589 107.177L146.589 110.78Z" fill="#3730A3"/>
<path d="M164.576 45.9324L168.173 45.9324L168.173 42.3299L164.576 42.3299L164.576 45.9324Z" fill="#3730A3"/>
<path d="M171.77 74.7534L175.368 74.7534L175.368 71.151L171.77 71.151L171.77 74.7534Z" fill="#3730A3"/>
<path d="M178.965 38.7268L182.562 38.7268L182.562 35.1243L178.965 35.1243L178.965 38.7268Z" fill="#3730A3"/>
<path d="M178.965 99.9721L182.562 99.9721L182.562 89.164L178.965 89.164L178.965 99.9721Z" fill="#3730A3"/>
<path d="M196.952 78.356L200.549 78.356L200.549 74.7535L196.952 74.7535L196.952 78.356Z" fill="#3730A3"/>
<path d="M186.16 42.3298L189.757 42.3298L189.757 35.1243L186.16 35.1243L186.16 42.3298Z" fill="#3730A3"/>
<path d="M193.355 49.5348L196.952 49.5348L196.952 45.9323L193.355 45.9323L193.355 49.5348Z" fill="#3730A3"/>
<path d="M196.952 56.7404L200.549 56.7404L200.549 53.1373L196.952 53.1373L196.952 56.7404Z" fill="#3730A3"/>
<path d="M196.952 67.5485L200.549 67.5485L200.549 63.9454L196.952 63.9454L196.952 67.5485Z" fill="#3730A3"/>
<path d="M186.16 99.9721L189.757 99.9721L189.757 96.3696L186.16 96.3696L186.16 99.9721Z" fill="#3730A3"/>
<path d="M204.147 96.3696L207.744 96.3696L207.744 92.7665L204.147 92.7665L204.147 96.3696Z" fill="#3730A3"/>
<path d="M200.549 103.575L204.147 103.575L204.147 99.9721L200.549 99.9721L200.549 103.575Z" fill="#3730A3"/>
<path d="M204.147 107.177L207.744 107.177L207.744 103.575L204.147 103.575L204.147 107.177Z" fill="#3730A3"/>
<path d="M204.147 114.383L207.744 114.383L207.744 110.78L204.147 110.78L204.147 114.383Z" fill="#3730A3"/>
<path d="M193.355 89.1641L196.952 89.1641L196.952 85.5616L193.355 85.5616L193.355 89.1641Z" fill="#3730A3"/>
<path d="M193.355 103.575L196.952 103.575L196.952 96.3696L193.355 96.3696L193.355 103.575Z" fill="#3730A3"/>
<path d="M189.757 110.78L193.355 110.78L193.355 107.177L189.757 107.177L189.757 110.78Z" fill="#3730A3"/>
<path d="M204.147 85.5615L207.744 85.5615L207.744 81.959L204.147 81.959L204.147 85.5615Z" fill="#3730A3"/>
<path d="M204.147 71.1511L207.744 71.1511L207.744 63.9455L204.147 63.9455L204.147 71.1511Z" fill="#3730A3"/>
<path d="M200.549 89.1641L204.147 89.1641L204.147 85.5616L200.549 85.5616L200.549 89.1641Z" fill="#3730A3"/>
<path d="M204.147 78.356L207.744 78.356L207.744 74.7535L204.147 74.7535L204.147 78.356Z" fill="#3730A3"/>
<path d="M204.147 56.7404L207.744 56.7404L207.744 53.1373L204.147 53.1373L204.147 56.7404Z" fill="#3730A3"/>
<path d="M182.562 81.9591L186.16 81.9591L186.16 74.7535L182.562 74.7535L182.562 81.9591Z" fill="#3730A3"/>
<path d="M150.186 74.7534L153.784 74.7534L153.784 71.151L150.186 71.151L150.186 74.7534Z" fill="#3730A3"/>
<path d="M157.381 74.7534L160.979 74.7534L160.979 71.151L157.381 71.151L157.381 74.7534Z" fill="#3730A3"/>
<path d="M153.784 67.5485L157.381 67.5485L157.381 63.9454L153.784 63.9454L153.784 67.5485Z" fill="#3730A3"/>
<path d="M150.186 81.9591L153.784 81.9591L153.784 78.3559L150.186 78.3559L150.186 81.9591Z" fill="#3730A3"/>
<path d="M150.186 63.9454L153.784 63.9454L153.784 60.3429L150.186 60.3429L150.186 63.9454Z" fill="#3730A3"/>
<path d="M164.576 63.9454L168.173 63.9454L168.173 60.3429L164.576 60.3429L164.576 63.9454Z" fill="#3730A3"/>
<path d="M157.381 63.9454L160.979 63.9454L160.979 60.3429L157.381 60.3429L157.381 63.9454Z" fill="#3730A3"/>
<path d="M182.562 45.9324L186.16 45.9324L186.16 42.3299L182.562 42.3299L182.562 45.9324Z" fill="#3730A3"/>
<path d="M139.394 110.78L142.992 110.78L142.992 107.177L139.394 107.177L139.394 110.78Z" fill="#3730A3"/>
<path d="M157.381 121.588L160.979 121.588L160.979 117.985L157.381 117.985L157.381 121.588Z" fill="#3730A3"/>
<path d="M207.744 103.575L211.341 103.575L211.341 99.9721L207.744 99.9721L207.744 103.575Z" fill="#3730A3"/>
<path d="M168.173 67.5485L171.77 67.5485L171.77 63.9454L168.173 63.9454L168.173 67.5485Z" fill="#3730A3"/>
<path d="M146.589 89.1641L150.187 89.1641L150.187 85.5616L146.589 85.5616L146.589 89.1641Z" fill="#3730A3"/>
<path d="M150.186 99.9721L153.784 99.9721L153.784 96.3696L150.186 96.3696L150.186 99.9721Z" fill="#3730A3"/>
<path d="M150.186 92.7665L153.784 92.7665L153.784 89.164L150.186 89.164L150.186 92.7665Z" fill="#3730A3"/>
<path d="M157.381 99.9721L160.979 99.9721L160.979 89.164L157.381 89.164L157.381 99.9721Z" fill="#3730A3"/>
<path d="M157.381 110.78L160.979 110.78L160.979 103.575L157.381 103.575L157.381 110.78Z" fill="#3730A3"/>
<path d="M153.784 89.1641L157.381 89.1641L157.381 85.5616L153.784 85.5616L153.784 89.1641Z" fill="#3730A3"/>
<path d="M189.757 67.5485L193.355 67.5485L193.355 60.343L189.757 60.343L189.757 67.5485Z" fill="#3730A3"/>
<path d="M168.173 56.7404L171.77 56.7404L171.77 49.5348L168.173 49.5348L168.173 56.7404Z" fill="#3730A3"/>
<path d="M175.368 49.5348L178.965 49.5348L178.965 45.9323L175.368 45.9323L175.368 49.5348Z" fill="#3730A3"/>
<path d="M142.991 114.383L146.589 114.383L146.589 110.78L142.991 110.78L142.991 114.383Z" fill="#3730A3"/>
<path d="M189.757 56.7404L193.355 56.7404L193.355 53.1373L189.757 53.1373L189.757 56.7404Z" fill="#3730A3"/>
<path d="M186.16 31.5218L189.757 31.5218L189.757 24.3162L186.16 24.3162L186.16 31.5218Z" fill="#3730A3"/>
<path d="M135.797 103.575L139.394 103.575L139.394 99.9721L135.797 99.9721L135.797 103.575Z" fill="#3730A3"/>
<path d="M189.757 81.9591L193.355 81.9591L193.355 78.3559L189.757 78.3559L189.757 81.9591Z" fill="#3730A3"/>
<path d="M171.77 60.343L175.368 60.343L175.368 56.7404L171.77 56.7404L171.77 60.343Z" fill="#3730A3"/>
<path d="M153.784 45.9324L157.381 45.9324L157.381 42.3299L153.784 42.3299L153.784 45.9324Z" fill="#3730A3"/>
<path d="M160.979 56.7404L164.576 56.7404L164.576 53.1373L160.979 53.1373L160.979 56.7404Z" fill="#3730A3"/>
<path d="M153.784 56.7404L157.381 56.7404L157.381 49.5348L153.784 49.5348L153.784 56.7404Z" fill="#3730A3"/>
<path d="M160.979 67.5485L164.576 67.5485L164.576 63.9454L160.979 63.9454L160.979 67.5485Z" fill="#3730A3"/>
<path d="M182.562 67.5485L186.16 67.5485L186.16 60.343L182.562 60.343L182.562 67.5485Z" fill="#3730A3"/>
<path d="M175.368 67.5485L178.965 67.5485L178.965 60.343L175.368 60.343L175.368 67.5485Z" fill="#3730A3"/>
<path d="M139.394 125.191L142.992 125.191L142.992 121.588L139.394 121.588L139.394 125.191Z" fill="#3730A3"/>
<path d="M178.965 60.343L182.562 60.343L182.562 56.7404L178.965 56.7404L178.965 60.343Z" fill="#3730A3"/>
<path d="M171.77 96.3696L175.368 96.3696L175.368 89.1641L171.77 89.1641L171.77 96.3696Z" fill="#3730A3"/>
<path d="M362.43 81.9591L366.028 81.9591L366.028 78.3559L362.43 78.3559L362.43 81.9591Z" fill="#3730A3"/>
<path d="M358.833 85.5615L362.43 85.5615L362.43 81.959L358.833 81.959L358.833 85.5615Z" fill="#3730A3"/>
<path d="M348.04 81.9591L351.638 81.9591L351.638 78.3559L348.04 78.3559L348.04 81.9591Z" fill="#3730A3"/>
<path d="M351.638 85.5615L355.235 85.5615L355.235 81.959L351.638 81.959L351.638 85.5615Z" fill="#3730A3"/>
<path d="M355.235 81.9591L358.833 81.9591L358.833 78.3559L355.235 78.3559L355.235 81.9591Z" fill="#3730A3"/>
<path d="M326.457 89.1641L330.054 89.1641L330.054 85.5616L326.457 85.5616L326.457 89.1641Z" fill="#3730A3"/>
<path d="M376.819 85.5615L380.417 85.5615L380.417 81.959L376.819 81.959L376.819 85.5615Z" fill="#3730A3"/>
<path d="M373.222 89.1641L376.819 89.1641L376.819 85.5616L373.222 85.5616L373.222 89.1641Z" fill="#3730A3"/>
<path d="M369.625 81.9591L373.222 81.9591L373.222 74.7535L369.625 74.7535L369.625 81.9591Z" fill="#3730A3"/>
<path d="M330.054 117.985L333.651 117.985L333.651 114.383L330.054 114.383L330.054 117.985Z" fill="#3730A3"/>
<path d="M376.819 78.356L380.417 78.356L380.417 71.151L376.819 71.151L376.819 78.356Z" fill="#3730A3"/>
<path d="M326.457 99.9721L330.054 99.9721L330.054 96.3696L326.457 96.3696L326.457 99.9721Z" fill="#3730A3"/>
<path d="M326.457 81.9591L330.054 81.9591L330.054 74.7535L326.457 74.7535L326.457 81.9591Z" fill="#3730A3"/>
<path d="M333.651 81.9591L337.249 81.9591L337.249 78.3559L333.651 78.3559L333.651 81.9591Z" fill="#3730A3"/>
<path d="M340.846 81.9591L344.443 81.9591L344.443 78.3559L340.846 78.3559L340.846 81.9591Z" fill="#3730A3"/>
<path d="M366.028 92.7665L369.625 92.7665L369.625 89.164L366.028 89.164L366.028 92.7665Z" fill="#3730A3"/>
<path d="M358.833 92.7665L362.43 92.7665L362.43 89.164L358.833 89.164L358.833 92.7665Z" fill="#3730A3"/>
<path d="M366.028 85.5615L369.625 85.5615L369.625 81.959L366.028 81.959L366.028 85.5615Z" fill="#3730A3"/>
<path d="M351.638 92.7665L355.235 92.7665L355.235 89.164L351.638 89.164L351.638 92.7665Z" fill="#3730A3"/>
<path d="M373.222 45.9324L376.819 45.9324L376.819 42.3299L373.222 42.3299L373.222 45.9324Z" fill="#3730A3"/>
<path d="M369.625 60.343L373.222 60.343L373.222 56.7404L369.625 56.7404L369.625 60.343Z" fill="#3730A3"/>
<path d="M376.819 53.1373L380.417 53.1373L380.417 49.5348L376.819 49.5348L376.819 53.1373Z" fill="#3730A3"/>
<path d="M240.12 96.3696L243.718 96.3696L243.718 89.1641L240.12 89.1641L240.12 96.3696Z" fill="#3730A3"/>
<path d="M232.925 96.3696L236.523 96.3696L236.523 92.7665L232.925 92.7665L232.925 96.3696Z" fill="#3730A3"/>
<path d="M229.328 99.9721L232.926 99.9721L232.926 96.3696L229.328 96.3696L229.328 99.9721Z" fill="#3730A3"/>
<path d="M225.731 92.7665L229.328 92.7665L229.328 89.164L225.731 89.164L225.731 92.7665Z" fill="#3730A3"/>
<path d="M232.925 89.1641L236.523 89.1641L236.523 85.5616L232.925 85.5616L232.925 89.1641Z" fill="#3730A3"/>
<path d="M272.496 96.3696L276.094 96.3696L276.094 92.7665L272.496 92.7665L272.496 96.3696Z" fill="#3730A3"/>
<path d="M258.107 92.7665L261.704 92.7665L261.704 89.164L258.107 89.164L258.107 92.7665Z" fill="#3730A3"/>
<path d="M211.341 121.588L214.939 121.588L214.939 117.985L211.341 117.985L211.341 121.588Z" fill="#3730A3"/>
<path d="M276.094 78.356L279.691 78.356L279.691 71.151L276.094 71.151L276.094 78.356Z" fill="#3730A3"/>
<path d="M247.315 89.1641L250.912 89.1641L250.912 85.5616L247.315 85.5616L247.315 89.1641Z" fill="#3730A3"/>
<path d="M222.133 96.3696L225.731 96.3696L225.731 92.7665L222.133 92.7665L222.133 96.3696Z" fill="#3730A3"/>
<path d="M319.262 81.9591L322.859 81.9591L322.859 74.7535L319.262 74.7535L319.262 81.9591Z" fill="#3730A3"/>
<path d="M211.341 92.7665L214.939 92.7665L214.939 89.164L211.341 89.164L211.341 92.7665Z" fill="#3730A3"/>
<path d="M214.939 107.177L218.536 107.177L218.536 103.575L214.939 103.575L214.939 107.177Z" fill="#3730A3"/>
<path d="M211.341 110.78L214.939 110.78L214.939 107.177L211.341 107.177L211.341 110.78Z" fill="#3730A3"/>
<path d="M214.939 81.9591L218.536 81.9591L218.536 78.3559L214.939 78.3559L214.939 81.9591Z" fill="#3730A3"/>
<path d="M211.341 85.5615L214.939 85.5615L214.939 81.959L211.341 81.959L211.341 85.5615Z" fill="#3730A3"/>
<path d="M222.133 81.9591L225.731 81.9591L225.731 78.3559L222.133 78.3559L222.133 81.9591Z" fill="#3730A3"/>
<path d="M218.536 85.5615L222.133 85.5615L222.133 81.959L218.536 81.959L218.536 85.5615Z" fill="#3730A3"/>
<path d="M222.133 103.575L225.731 103.575L225.731 99.9721L222.133 99.9721L222.133 103.575Z" fill="#3730A3"/>
<path d="M214.939 99.9721L218.536 99.9721L218.536 92.7665L214.939 92.7665L214.939 99.9721Z" fill="#3730A3"/>
<path d="M283.289 92.7665L286.886 92.7665L286.886 85.5615L283.289 85.5615L283.289 92.7665Z" fill="#3730A3"/>
<path d="M308.47 121.588L312.067 121.588L312.067 117.985L308.47 117.985L308.47 121.588Z" fill="#3730A3"/>
<path d="M301.275 103.575L304.872 103.575L304.872 99.9721L301.275 99.9721L301.275 103.575Z" fill="#3730A3"/>
<path d="M304.872 96.3696L308.47 96.3696L308.47 89.1641L304.872 89.1641L304.872 96.3696Z" fill="#3730A3"/>
<path d="M312.067 114.383L315.665 114.383L315.665 110.78L312.067 110.78L312.067 114.383Z" fill="#3730A3"/>
<path d="M319.262 103.575L322.859 103.575L322.859 96.3696L319.262 96.3696L319.262 103.575Z" fill="#3730A3"/>
<path d="M312.067 81.9591L315.665 81.9591L315.665 74.7535L312.067 74.7535L312.067 81.9591Z" fill="#3730A3"/>
<path d="M312.067 99.9721L315.665 99.9721L315.665 92.7665L312.067 92.7665L312.067 99.9721Z" fill="#3730A3"/>
<path d="M312.067 107.177L315.665 107.177L315.665 103.575L312.067 103.575L312.067 107.177Z" fill="#3730A3"/>
<path d="M304.872 78.356L308.47 78.356L308.47 74.7535L304.872 74.7535L304.872 78.356Z" fill="#3730A3"/>
<path d="M290.483 78.356L294.08 78.356L294.08 74.7535L290.483 74.7535L290.483 78.356Z" fill="#3730A3"/>
<path d="M290.483 121.588L294.08 121.588L294.08 117.985L290.483 117.985L290.483 121.588Z" fill="#3730A3"/>
<path d="M290.483 92.7665L294.08 92.7665L294.08 81.9591L290.483 81.9591L290.483 92.7665Z" fill="#3730A3"/>
<path d="M286.886 99.9721L290.483 99.9721L290.483 96.3696L286.886 96.3696L286.886 99.9721Z" fill="#3730A3"/>
<path d="M301.275 110.78L304.872 110.78L304.872 107.177L301.275 107.177L301.275 110.78Z" fill="#3730A3"/>
<path d="M297.678 78.356L301.275 78.356L301.275 74.7535L297.678 74.7535L297.678 78.356Z" fill="#3730A3"/>
<path d="M286.886 74.7534L290.483 74.7534L290.483 71.151L286.886 71.151L286.886 74.7534Z" fill="#3730A3"/>
<path d="M297.678 92.7665L301.275 92.7665L301.275 85.5615L297.678 85.5615L297.678 92.7665Z" fill="#3730A3"/>
<path d="M99.8233 121.588L103.421 121.588L103.421 117.985L99.8233 117.985L99.8233 121.588Z" fill="#3730A3"/>
<path d="M17.0843 121.588L20.6815 121.588L20.6815 117.985L17.0843 117.985L17.0843 121.588Z" fill="#3730A3"/>
<path d="M17.0843 81.959L20.6815 81.959L20.6815 78.3559L17.0843 78.3559L17.0843 81.959Z" fill="#3730A3"/>
<path d="M17.0843 110.78L20.6815 110.78L20.6815 103.575L17.0843 103.575L17.0843 110.78Z" fill="#3730A3"/>
<path d="M20.6816 117.985L24.2787 117.985L24.2787 114.383L20.6816 114.383L20.6816 117.985Z" fill="#3730A3"/>
<path d="M31.4737 121.588L35.071 121.588L35.071 117.985L31.4737 117.985L31.4737 121.588Z" fill="#3730A3"/>
<path d="M38.6687 121.588L42.2659 121.588L42.2659 117.985L38.6687 117.985L38.6687 121.588Z" fill="#3730A3"/>
<path d="M27.8765 125.191L31.4737 125.191L31.4737 121.588L27.8765 121.588L27.8765 125.191Z" fill="#3730A3"/>
<path d="M35.0709 128.793L38.6687 128.793L38.6687 125.191L35.0709 125.191L35.0709 128.793Z" fill="#3730A3"/>
<path d="M27.8765 132.396L31.4737 132.396L31.4737 128.793L27.8765 128.793L27.8765 132.396Z" fill="#3730A3"/>
<path d="M24.2788 114.383L27.8766 114.383L27.8766 107.177L24.2788 107.177L24.2788 114.383Z" fill="#3730A3"/>
<path d="M6.29221 71.151L9.8894 71.151L9.8894 67.5485L6.29221 67.5485L6.29221 71.151Z" fill="#3730A3"/>
<path d="M2.69505 92.7665L6.29224 92.7665L6.29224 89.164L2.69505 89.164L2.69505 92.7665Z" fill="#3730A3"/>
<path d="M2.69505 103.575L6.29224 103.575L6.29224 96.3696L2.69505 96.3696L2.69505 103.575Z" fill="#3730A3"/>
<path d="M13.4872 132.396L17.0844 132.396L17.0844 121.588L13.4872 121.588L13.4872 132.396Z" fill="#3730A3"/>
<path d="M2.69505 121.588L6.29224 121.588L6.29224 117.985L2.69505 117.985L2.69505 121.588Z" fill="#3730A3"/>
<path d="M9.88937 107.177L13.4872 107.177L13.4872 99.972L9.88937 99.972L9.88937 107.177Z" fill="#3730A3"/>
<path d="M20.6816 135.999L24.2787 135.999L24.2787 132.396L20.6816 132.396L20.6816 135.999Z" fill="#3730A3"/>
<path d="M20.6816 128.793L24.2787 128.793L24.2787 121.588L20.6816 121.588L20.6816 128.793Z" fill="#3730A3"/>
<path d="M13.4872 139.601L17.0844 139.601L17.0844 135.999L13.4872 135.999L13.4872 139.601Z" fill="#3730A3"/>
<path d="M42.2659 117.985L45.8631 117.985L45.8631 110.78L42.2659 110.78L42.2659 117.985Z" fill="#3730A3"/>
<path d="M49.4602 99.9721L53.058 99.9721L53.058 96.3696L49.4602 96.3696L49.4602 99.9721Z" fill="#3730A3"/>
<path d="M56.6553 110.78L60.2525 110.78L60.2525 103.575L56.6553 103.575L56.6553 110.78Z" fill="#3730A3"/>
<path d="M53.058 103.575L56.6553 103.575L56.6553 99.9721L53.058 99.9721L53.058 103.575Z" fill="#3730A3"/>
<path d="M31.4737 114.383L35.071 114.383L35.071 107.177L31.4737 107.177L31.4737 114.383Z" fill="#3730A3"/>
<path d="M63.8497 96.3696L67.4475 96.3696L67.4475 92.7665L63.8497 92.7665L63.8497 96.3696Z" fill="#3730A3"/>
<path d="M27.8765 89.1641L31.4737 89.1641L31.4737 85.5615L27.8765 85.5615L27.8765 89.1641Z" fill="#3730A3"/>
<path d="M63.8497 89.1641L67.4475 89.1641L67.4475 81.9591L63.8497 81.9591L63.8497 89.1641Z" fill="#3730A3"/>
<path d="M49.4602 89.1641L53.058 89.1641L53.058 85.5615L49.4602 85.5615L49.4602 89.1641Z" fill="#3730A3"/>
<path d="M45.8631 92.7665L49.4603 92.7665L49.4603 89.164L45.8631 89.164L45.8631 92.7665Z" fill="#3730A3"/>
<path d="M53.058 96.3696L56.6553 96.3696L56.6553 89.1641L53.058 89.1641L53.058 96.3696Z" fill="#3730A3"/>
<path d="M45.8631 125.191L49.4603 125.191L49.4603 117.985L45.8631 117.985L45.8631 125.191Z" fill="#3730A3"/>
<path d="M-0.902295 125.191L2.69495 125.191L2.69495 121.588L-0.902295 121.588L-0.902295 125.191Z" fill="#3730A3"/>
<path d="M38.6687 96.3696L42.2659 96.3696L42.2659 92.7665L38.6687 92.7665L38.6687 96.3696Z" fill="#3730A3"/>
<path d="M35.0709 117.985L38.6687 117.985L38.6687 114.383L35.0709 114.383L35.0709 117.985Z" fill="#3730A3"/>
<path d="M35.0709 99.9721L38.6687 99.9721L38.6687 96.3696L35.0709 96.3696L35.0709 99.9721Z" fill="#3730A3"/>
<path d="M42.2659 103.575L45.8631 103.575L45.8631 99.9721L42.2659 99.9721L42.2659 103.575Z" fill="#3730A3"/>
<path d="M38.6687 107.177L42.2659 107.177L42.2659 103.575L38.6687 103.575L38.6687 107.177Z" fill="#3730A3"/>
<path d="M31.4737 74.7534L35.071 74.7534L35.071 71.1509L31.4737 71.1509L31.4737 74.7534Z" fill="#3730A3"/>
<path d="M31.4737 96.3696L35.071 96.3696L35.071 92.7665L31.4737 92.7665L31.4737 96.3696Z" fill="#3730A3"/>
<path d="M6.29221 135.999L9.8894 135.999L9.88941 121.588L6.29222 121.588L6.29221 135.999Z" fill="#3730A3"/>
<path d="M63.8497 107.177L67.4475 107.177L67.4475 99.972L63.8497 99.972L63.8497 107.177Z" fill="#3730A3"/>
<path d="M6.29221 143.204L9.8894 143.204L9.8894 139.601L6.29221 139.601L6.29221 143.204Z" fill="#3730A3"/>
<path d="M-0.902295 139.601L2.69495 139.601L2.69495 128.793L-0.902294 128.793L-0.902295 139.601Z" fill="#3730A3"/>
<path d="M-0.902295 146.806L2.69495 146.806L2.69495 143.204L-0.902295 143.204L-0.902295 146.806Z" fill="#3730A3"/>
<path d="M107.018 92.7665L110.616 92.7665L110.616 89.164L107.018 89.164L107.018 92.7665Z" fill="#3730A3"/>
<path d="M96.2262 78.3559L99.8234 78.3559L99.8234 74.7534L96.2262 74.7534L96.2262 78.3559Z" fill="#3730A3"/>
<path d="M103.421 85.5615L107.018 85.5615L107.018 81.959L103.421 81.959L103.421 85.5615Z" fill="#3730A3"/>
<path d="M107.018 81.959L110.616 81.959L110.616 78.3559L107.018 78.3559L107.018 81.959Z" fill="#3730A3"/>
<path d="M99.8233 96.3696L103.421 96.3696L103.421 92.7665L99.8233 92.7665L99.8233 96.3696Z" fill="#3730A3"/>
<path d="M114.213 81.959L117.81 81.959L117.81 78.3559L114.213 78.3559L114.213 81.959Z" fill="#3730A3"/>
<path d="M85.434 74.7534L89.0312 74.7534L89.0312 71.1509L85.434 71.1509L85.434 74.7534Z" fill="#3730A3"/>
<path d="M89.0312 71.151L92.629 71.151L92.629 67.5485L89.0312 67.5485L89.0312 71.151Z" fill="#3730A3"/>
<path d="M92.629 74.7534L96.2262 74.7534L96.2262 71.1509L92.629 71.1509L92.629 74.7534Z" fill="#3730A3"/>
<path d="M81.8368 71.151L85.434 71.151L85.434 67.5485L81.8368 67.5485L81.8368 71.151Z" fill="#3730A3"/>
<path d="M110.616 110.78L114.213 110.78L114.213 107.177L110.616 107.177L110.616 110.78Z" fill="#3730A3"/>
<path d="M107.018 99.9721L110.616 99.9721L110.616 96.3696L107.018 96.3696L107.018 99.9721Z" fill="#3730A3"/>
<path d="M107.018 117.985L110.616 117.985L110.616 114.383L107.018 114.383L107.018 117.985Z" fill="#3730A3"/>
<path d="M103.421 110.78L107.018 110.78L107.018 107.177L103.421 107.177L103.421 110.78Z" fill="#3730A3"/>
<path d="M121.408 107.177L125.005 107.177L125.005 103.575L121.408 103.575L121.408 107.177Z" fill="#3730A3"/>
<path d="M99.8233 74.7534L103.421 74.7534L103.421 71.1509L99.8233 71.1509L99.8233 74.7534Z" fill="#3730A3"/>
<path d="M114.213 99.9721L117.81 99.9721L117.81 96.3696L114.213 96.3696L114.213 99.9721Z" fill="#3730A3"/>
<path d="M114.213 107.177L117.81 107.177L117.81 103.575L114.213 103.575L114.213 107.177Z" fill="#3730A3"/>
<path d="M114.213 89.1641L117.81 89.1641L117.81 85.5615L114.213 85.5615L114.213 89.1641Z" fill="#3730A3"/>
<path d="M114.213 117.985L117.81 117.985L117.81 114.383L114.213 114.383L114.213 117.985Z" fill="#3730A3"/>
<path d="M99.8233 89.1641L103.421 89.1641L103.421 85.5615L99.8233 85.5615L99.8233 89.1641Z" fill="#3730A3"/>
<path d="M142.991 103.575L146.589 103.575L146.589 96.3696L142.991 96.3696L142.991 103.575Z" fill="#3730A3"/>
<path d="M135.797 63.9454L139.394 63.9454L139.394 60.3429L135.797 60.3429L135.797 63.9454Z" fill="#3730A3"/>
<path d="M103.421 78.3559L107.018 78.3559L107.018 74.7534L103.421 74.7534L103.421 78.3559Z" fill="#3730A3"/>
<path d="M142.991 63.9454L146.589 63.9454L146.589 60.3429L142.991 60.3429L142.991 63.9454Z" fill="#3730A3"/>
<path d="M128.602 63.9454L132.199 63.9454L132.199 60.3429L128.602 60.3429L128.602 63.9454Z" fill="#3730A3"/>
<path d="M128.602 96.3696L132.199 96.3696L132.199 92.7665L128.602 92.7665L128.602 96.3696Z" fill="#3730A3"/>
<path d="M135.797 78.356L139.394 78.356L139.394 74.7535L135.797 74.7535L135.797 78.356Z" fill="#3730A3"/>
<path d="M142.991 74.7534L146.589 74.7534L146.589 71.151L142.991 71.151L142.991 74.7534Z" fill="#3730A3"/>
<path d="M139.394 89.1641L142.992 89.1641L142.992 81.9591L139.394 81.9591L139.394 89.1641Z" fill="#3730A3"/>
<path d="M139.394 67.5485L142.992 67.5485L142.992 63.9454L139.394 63.9454L139.394 67.5485Z" fill="#3730A3"/>
<path d="M128.602 81.9591L132.199 81.9591L132.199 78.3559L128.602 78.3559L128.602 81.9591Z" fill="#3730A3"/>
<path d="M117.81 78.356L121.408 78.356L121.408 74.7535L117.81 74.7535L117.81 78.356Z" fill="#3730A3"/>
<path d="M121.408 74.7534L125.005 74.7534L125.005 71.151L121.408 71.151L121.408 74.7534Z" fill="#3730A3"/>
<path d="M110.616 78.3559L114.213 78.3559L114.213 74.7534L110.616 74.7534L110.616 78.3559Z" fill="#3730A3"/>
<path d="M125.005 85.5615L128.602 85.5615L128.602 81.959L125.005 81.959L125.005 85.5615Z" fill="#3730A3"/>
<path d="M132.199 71.1511L135.797 71.1511L135.797 67.5485L132.199 67.5485L132.199 71.1511Z" fill="#3730A3"/>
<path d="M60.2525 99.9721L63.8497 99.9721L63.8497 96.3696L60.2525 96.3696L60.2525 99.9721Z" fill="#3730A3"/>
<path d="M132.199 85.5615L135.797 85.5615L135.797 81.959L132.199 81.959L132.199 85.5615Z" fill="#3730A3"/>
<path d="M128.602 74.7534L132.199 74.7534L132.199 71.151L128.602 71.151L128.602 74.7534Z" fill="#3730A3"/>
<path d="M121.408 81.9591L125.005 81.9591L125.005 78.3559L121.408 78.3559L121.408 81.9591Z" fill="#3730A3"/>
<path d="M63.8497 128.793L67.4475 128.793L67.4475 125.191L63.8497 125.191L63.8497 128.793Z" fill="#3730A3"/>
<path d="M71.0445 128.793L74.6418 128.793L74.6418 125.191L71.0445 125.191L71.0445 128.793Z" fill="#3730A3"/>
<path d="M89.0312 85.5615L92.629 85.5615L92.629 81.959L89.0312 81.959L89.0312 85.5615Z" fill="#3730A3"/>
<path d="M67.4474 121.588L71.0447 121.588L71.0447 114.383L67.4474 114.383L67.4474 121.588Z" fill="#3730A3"/>
<path d="M92.629 92.7665L96.2262 92.7665L96.2262 85.5615L92.629 85.5615L92.629 92.7665Z" fill="#3730A3"/>
<path d="M85.434 81.959L89.0312 81.959L89.0312 78.3559L85.434 78.3559L85.434 81.959Z" fill="#3730A3"/>
<path d="M96.2262 114.383L99.8234 114.383L99.8234 107.177L96.2262 107.177L96.2262 114.383Z" fill="#3730A3"/>
<path d="M81.8368 85.5615L85.434 85.5615L85.434 81.959L81.8368 81.959L81.8368 85.5615Z" fill="#3730A3"/>
<path d="M78.239 89.1641L81.8369 89.1641L81.8369 85.5615L78.239 85.5615L78.239 89.1641Z" fill="#3730A3"/>
<path d="M60.2525 92.7665L63.8497 92.7665L63.8497 89.164L60.2525 89.164L60.2525 92.7665Z" fill="#3730A3"/>
<path d="M60.2525 81.959L63.8497 81.959L63.8497 78.3559L60.2525 78.3559L60.2525 81.959Z" fill="#3730A3"/>
<path d="M56.6553 85.5615L60.2525 85.5615L60.2525 81.959L56.6553 81.959L56.6553 85.5615Z" fill="#3730A3"/>
<path d="M60.2525 121.588L63.8497 121.588L63.8497 117.985L60.2525 117.985L60.2525 121.588Z" fill="#3730A3"/>
<path d="M60.2525 74.7534L63.8497 74.7534L63.8497 71.1509L60.2525 71.1509L60.2525 74.7534Z" fill="#3730A3"/>
<path d="M92.629 103.575L96.2262 103.575L96.2262 96.3696L92.629 96.3696L92.629 103.575Z" fill="#3730A3"/>
<path d="M49.4602 114.383L53.058 114.383L53.058 107.177L49.4602 107.177L49.4602 114.383Z" fill="#3730A3"/>
<path d="M56.6553 132.396L60.2525 132.396L60.2525 128.793L56.6553 128.793L56.6553 132.396Z" fill="#3730A3"/>
<path d="M53.058 125.191L56.6553 125.191L56.6553 117.985L53.058 117.985L53.058 125.191Z" fill="#3730A3"/>
<path d="M49.4602 135.999L53.058 135.999L53.058 128.793L49.4602 128.793L49.4602 135.999Z" fill="#3730A3"/>
<path d="M78.239 125.191L81.8369 125.191L81.8369 121.588L78.239 121.588L78.239 125.191Z" fill="#3730A3"/>
<path d="M85.434 125.191L89.0312 125.191L89.0312 121.588L85.434 121.588L85.434 125.191Z" fill="#3730A3"/>
<path d="M81.8368 117.985L85.434 117.985L85.434 110.78L81.8368 110.78L81.8368 117.985Z" fill="#3730A3"/>
<path d="M99.8233 103.575L103.421 103.575L103.421 99.9721L99.8233 99.9721L99.8233 103.575Z" fill="#3730A3"/>
<path d="M74.6418 117.985L78.239 117.985L78.239 114.383L74.6418 114.383L74.6418 117.985Z" fill="#3730A3"/>
<path d="M89.0312 114.383L92.629 114.383L92.629 110.78L89.0312 110.78L89.0312 114.383Z" fill="#3730A3"/>
<path d="M92.629 121.588L96.2262 121.588L96.2262 117.985L92.629 117.985L92.629 121.588Z" fill="#3730A3"/>
<path d="M96.2262 125.191L99.8234 125.191L99.8234 121.588L96.2262 121.588L96.2262 125.191Z" fill="#3730A3"/>
<path d="M85.434 96.3696L89.0312 96.3696L89.0312 89.1641L85.434 89.1641L85.434 96.3696Z" fill="#3730A3"/>
<path d="M71.0445 110.78L74.6418 110.78L74.6418 107.177L71.0445 107.177L71.0445 110.78Z" fill="#3730A3"/>
<path d="M78.239 99.9721L81.8369 99.9721L81.8369 92.7665L78.239 92.7665L78.239 99.9721Z" fill="#3730A3"/>
<path d="M71.0445 103.575L74.6418 103.575L74.6418 96.3696L71.0445 96.3696L71.0445 103.575Z" fill="#3730A3"/>
<path d="M71.0445 85.5615L74.6418 85.5615L74.6418 81.959L71.0445 81.959L71.0445 85.5615Z" fill="#3730A3"/>
<path d="M85.434 107.177L89.0312 107.177L89.0312 99.972L85.434 99.972L85.434 107.177Z" fill="#3730A3"/>
<path d="M78.239 107.177L81.8369 107.177L81.8369 103.575L78.239 103.575L78.239 107.177Z" fill="#3730A3"/>
<path d="M74.6418 81.959L78.239 81.959L78.239 78.3559L74.6418 78.3559L74.6418 81.959Z" fill="#3730A3"/>
<path d="M71.0445 92.7665L74.6418 92.7665L74.6418 89.164L71.0445 89.164L71.0445 92.7665Z" fill="#3730A3"/>
<path d="M78.239 78.3559L81.8369 78.3559L81.8369 74.7534L78.239 74.7534L78.239 78.3559Z" fill="#3730A3"/>
<path d="M283.289 81.9591L286.886 81.9591L286.886 74.7535L283.289 74.7535L283.289 81.9591Z" fill="#3730A3"/>
<path d="M160.979 35.1242L164.576 35.1242L164.576 31.5217L160.979 31.5217L160.979 35.1242Z" fill="#3730A3"/>
<path d="M164.576 38.7268L168.173 38.7268L168.173 35.1243L164.576 35.1243L164.576 38.7268Z" fill="#3730A3"/>
<path d="M153.784 35.1242L157.381 35.1242L157.381 31.5217L153.784 31.5217L153.784 35.1242Z" fill="#3730A3"/>
<path d="M146.589 35.1242L150.187 35.1242L150.187 31.5217L146.589 31.5217L146.589 35.1242Z" fill="#3730A3"/>
<path d="M150.186 38.7268L153.784 38.7268L153.784 35.1243L150.186 35.1243L150.186 38.7268Z" fill="#3730A3"/>
<path d="M139.394 27.9193L142.992 27.9193L142.992 24.3162L139.394 24.3162L139.394 27.9193Z" fill="#3730A3"/>
<path d="M157.381 38.7268L160.979 38.7268L160.979 35.1243L157.381 35.1243L157.381 38.7268Z" fill="#3730A3"/>
<path d="M139.394 38.7268L142.992 38.7268L142.992 31.5218L139.394 31.5218L139.394 38.7268Z" fill="#3730A3"/>
<path d="M146.589 27.9193L150.187 27.9193L150.187 24.3162L146.589 24.3162L146.589 27.9193Z" fill="#3730A3"/>
<path d="M168.173 20.7137L171.77 20.7137L171.77 17.1111L168.173 17.1111L168.173 20.7137Z" fill="#3730A3"/>
<path d="M178.965 27.9193L182.562 27.9193L182.562 24.3162L178.965 24.3162L178.965 27.9193Z" fill="#3730A3"/>
<path d="M182.562 20.7137L186.16 20.7137L186.16 17.1111L182.562 17.1111L182.562 20.7137Z" fill="#3730A3"/>
<path d="M175.368 24.3162L178.965 24.3162L178.965 17.1112L175.368 17.1112L175.368 24.3162Z" fill="#3730A3"/>
<path d="M153.784 27.9193L157.381 27.9193L157.381 24.3162L153.784 24.3162L153.784 27.9193Z" fill="#3730A3"/>
<path d="M189.757 20.7137L193.355 20.7137L193.355 17.1111L189.757 17.1111L189.757 20.7137Z" fill="#3730A3"/>
<path d="M142.991 49.5348L146.589 49.5348L146.589 45.9323L142.991 45.9323L142.991 49.5348Z" fill="#3730A3"/>
<path d="M157.381 20.7137L160.979 20.7137L160.979 17.1111L157.381 17.1111L157.381 20.7137Z" fill="#3730A3"/>
<path d="M164.576 17.1113L168.173 17.1113L168.173 13.5088L164.576 13.5088L164.576 17.1113Z" fill="#3730A3"/>
<path d="M171.77 38.7268L175.368 38.7268L175.368 35.1243L171.77 35.1243L171.77 38.7268Z" fill="#3730A3"/>
<path d="M193.355 17.1113L196.952 17.1113L196.952 13.5088L193.355 13.5088L193.355 17.1113Z" fill="#3730A3"/>
<path d="M114.213 35.1242L117.81 35.1242L117.81 31.5217L114.213 31.5217L114.213 35.1242Z" fill="#3730A3"/>
<path d="M110.616 20.7137L114.213 20.7137L114.213 17.1111L110.616 17.1111L110.616 20.7137Z" fill="#3730A3"/>
<path d="M107.018 27.9193L110.616 27.9193L110.616 24.3162L107.018 24.3162L107.018 27.9193Z" fill="#3730A3"/>
<path d="M146.589 53.1373L150.187 53.1373L150.187 49.5348L146.589 49.5348L146.589 53.1373Z" fill="#3730A3"/>
<path d="M103.421 38.7268L107.018 38.7268L107.018 35.1243L103.421 35.1243L103.421 38.7268Z" fill="#3730A3"/>
<path d="M99.8233 42.3298L103.421 42.3298L103.421 38.7267L99.8233 38.7267L99.8233 42.3298Z" fill="#3730A3"/>
<path d="M107.018 42.3298L110.616 42.3298L110.616 38.7267L107.018 38.7267L107.018 42.3298Z" fill="#3730A3"/>
<path d="M96.2262 38.7268L99.8234 38.7268L99.8234 35.1243L96.2262 35.1243L96.2262 38.7268Z" fill="#3730A3"/>
<path d="M117.81 53.1373L121.408 53.1373L121.408 49.5348L117.81 49.5348L117.81 53.1373Z" fill="#3730A3"/>
<path d="M114.213 45.9324L117.81 45.9324L117.81 38.7269L114.213 38.7269L114.213 45.9324Z" fill="#3730A3"/>
<path d="M132.199 42.3298L135.797 42.3298L135.797 35.1243L132.199 35.1243L132.199 42.3298Z" fill="#3730A3"/>
<path d="M132.199 31.5218L135.797 31.5218L135.797 27.9193L132.199 27.9193L132.199 31.5218Z" fill="#3730A3"/>
<path d="M121.408 49.5348L125.005 49.5348L125.005 42.3298L121.408 42.3298L121.408 49.5348Z" fill="#3730A3"/>
<path d="M139.394 53.1373L142.992 53.1373L142.992 49.5348L139.394 49.5348L139.394 53.1373Z" fill="#3730A3"/>
<path d="M135.797 49.5348L139.394 49.5348L139.394 45.9323L135.797 45.9323L135.797 49.5348Z" fill="#3730A3"/>
<path d="M99.8233 49.5348L103.421 49.5348L103.421 45.9323L99.8233 45.9323L99.8233 49.5348Z" fill="#3730A3"/>
<path d="M125.005 27.9193L128.602 27.9193L128.602 24.3162L125.005 24.3162L125.005 27.9193Z" fill="#3730A3"/>
<path d="M128.602 35.1242L132.199 35.1242L132.199 31.5217L128.602 31.5217L128.602 35.1242Z" fill="#3730A3"/>
<path d="M128.602 49.5348L132.199 49.5348L132.199 42.3298L128.602 42.3298L128.602 49.5348Z" fill="#3730A3"/>
<path d="M243.718 17.1113L247.315 17.1113L247.315 13.5088L243.718 13.5088L243.718 17.1113Z" fill="#3730A3"/>
<path d="M258.107 49.5348L261.704 49.5348L261.704 42.3298L258.107 42.3298L258.107 49.5348Z" fill="#3730A3"/>
<path d="M236.523 17.1113L240.12 17.1113L240.12 13.5088L236.523 13.5088L236.523 17.1113Z" fill="#3730A3"/>
<path d="M254.509 13.5088L258.107 13.5088L258.107 9.90568L254.509 9.90568L254.509 13.5088Z" fill="#3730A3"/>
<path d="M247.315 13.5088L250.912 13.5088L250.912 9.90568L247.315 9.90568L247.315 13.5088Z" fill="#3730A3"/>
<path d="M222.133 17.1113L225.731 17.1113L225.731 13.5088L222.133 13.5088L222.133 17.1113Z" fill="#3730A3"/>
<path d="M218.536 27.9193L222.133 27.9193L222.133 20.7138L218.536 20.7138L218.536 27.9193Z" fill="#3730A3"/>
<path d="M229.328 17.1113L232.926 17.1113L232.926 13.5088L229.328 13.5088L229.328 17.1113Z" fill="#3730A3"/>
<path d="M232.925 20.7137L236.523 20.7137L236.523 17.1111L232.925 17.1111L232.925 20.7137Z" fill="#3730A3"/>
<path d="M236.523 6.30313L240.12 6.30313L240.12 2.70064L236.523 2.70064L236.523 6.30313Z" fill="#3730A3"/>
<path d="M258.107 38.7268L261.704 38.7268L261.704 35.1243L258.107 35.1243L258.107 38.7268Z" fill="#3730A3"/>
<path d="M243.718 6.30313L247.315 6.30313L247.315 2.70064L243.718 2.70064L243.718 6.30313Z" fill="#3730A3"/>
<path d="M214.939 6.30313L218.536 6.30313L218.536 2.70064L214.939 2.70064L214.939 6.30313Z" fill="#3730A3"/>
<path d="M240.12 13.5088L243.718 13.5088L243.718 9.90568L240.12 9.90568L240.12 13.5088Z" fill="#3730A3"/>
<path d="M265.301 49.5348L268.899 49.5348L268.899 45.9323L265.301 45.9323L265.301 49.5348Z" fill="#3730A3"/>
<path d="M229.328 6.30313L232.926 6.30313L232.926 2.70064L229.328 2.70064L229.328 6.30313Z" fill="#3730A3"/>
<path d="M225.731 13.5088L229.328 13.5088L229.328 9.90568L225.731 9.90568L225.731 13.5088Z" fill="#3730A3"/>
<path d="M232.925 13.5088L236.523 13.5088L236.523 9.90568L232.925 9.90568L232.925 13.5088Z" fill="#3730A3"/>
<path d="M222.133 6.30313L225.731 6.30313L225.731 2.70064L222.133 2.70064L222.133 6.30313Z" fill="#3730A3"/>
<path d="M204.147 31.5218L207.744 31.5218L207.744 27.9193L204.147 27.9193L204.147 31.5218Z" fill="#3730A3"/>
<path d="M200.549 17.1113L204.147 17.1113L204.147 13.5088L200.549 13.5088L200.549 17.1113Z" fill="#3730A3"/>
<path d="M196.952 9.90564L200.549 9.90564L200.549 6.30313L196.952 6.30313L196.952 9.90564Z" fill="#3730A3"/>
<path d="M186.16 17.1113L189.757 17.1113L189.757 13.5088L186.16 13.5088L186.16 17.1113Z" fill="#3730A3"/>
<path d="M200.549 35.1242L204.147 35.1242L204.147 31.5217L200.549 31.5217L200.549 35.1242Z" fill="#3730A3"/>
<path d="M200.549 27.9193L204.147 27.9193L204.147 24.3162L200.549 24.3162L200.549 27.9193Z" fill="#3730A3"/>
<path d="M175.368 9.90564L178.965 9.90564L178.965 6.30313L175.368 6.30313L175.368 9.90564Z" fill="#3730A3"/>
<path d="M178.965 17.1113L182.562 17.1113L182.562 13.5088L178.965 13.5088L178.965 17.1113Z" fill="#3730A3"/>
<path d="M189.757 9.90564L193.355 9.90564L193.355 6.30313L189.757 6.30313L189.757 9.90564Z" fill="#3730A3"/>
<path d="M182.562 9.90564L186.16 9.90564L186.16 6.30313L182.562 6.30313L182.562 9.90564Z" fill="#3730A3"/>
<path d="M207.744 17.1113L211.341 17.1113L211.341 13.5088L207.744 13.5088L207.744 17.1113Z" fill="#3730A3"/>
<path d="M196.952 38.7268L200.549 38.7268L200.549 35.1243L196.952 35.1243L196.952 38.7268Z" fill="#3730A3"/>
<path d="M214.939 17.1113L218.536 17.1113L218.536 13.5088L214.939 13.5088L214.939 17.1113Z" fill="#3730A3"/>
<path d="M211.341 31.5218L214.939 31.5218L214.939 24.3162L211.341 24.3162L211.341 31.5218Z" fill="#3730A3"/>
<path d="M204.147 38.7268L207.744 38.7268L207.744 35.1243L204.147 35.1243L204.147 38.7268Z" fill="#3730A3"/>
<path d="M207.744 42.3298L211.341 42.3298L211.341 38.7267L207.744 38.7267L207.744 42.3298Z" fill="#3730A3"/>
<path d="M193.355 35.1242L196.952 35.1242L196.952 27.9192L193.355 27.9192L193.355 35.1242Z" fill="#3730A3"/>
<path d="M200.549 42.3298L204.147 42.3298L204.147 38.7267L200.549 38.7267L200.549 42.3298Z" fill="#3730A3"/>
<path d="M193.355 42.3298L196.952 42.3298L196.952 38.7267L193.355 38.7267L193.355 42.3298Z" fill="#3730A3"/>
<path d="M250.912 17.1113L254.509 17.1113L254.509 13.5088L250.912 13.5088L250.912 17.1113Z" fill="#3730A3"/>
<path d="M71.0445 56.7404L74.6418 56.7404L74.6418 53.1372L71.0445 53.1372L71.0445 56.7404Z" fill="#3730A3"/>
<path d="M17.0843 53.1373L20.6815 53.1373L20.6815 49.5348L17.0843 49.5348L17.0843 53.1373Z" fill="#3730A3"/>
<path d="M13.4872 49.5348L17.0844 49.5348L17.0844 45.9322L13.4872 45.9322L13.4872 49.5348Z" fill="#3730A3"/>
<path d="M27.8766 56.7404L31.4738 56.7404L31.4738 53.1372L27.8766 53.1372L27.8766 56.7404Z" fill="#3730A3"/>
<path d="M20.6816 56.7404L24.2788 56.7404L24.2788 53.1372L20.6816 53.1372L20.6816 56.7404Z" fill="#3730A3"/>
<path d="M49.4602 56.7404L53.058 56.7404L53.058 53.1372L49.4602 53.1372L49.4602 56.7404Z" fill="#3730A3"/>
<path d="M45.8631 53.1373L49.4603 53.1373L49.4603 49.5348L45.8631 49.5348L45.8631 53.1373Z" fill="#3730A3"/>
<path d="M38.6687 53.1373L42.2659 53.1373L42.2659 49.5348L38.6687 49.5348L38.6687 53.1373Z" fill="#3730A3"/>
<path d="M31.4737 53.1373L35.071 53.1373L35.071 49.5348L31.4737 49.5348L31.4737 53.1373Z" fill="#3730A3"/>
<path d="M24.2788 53.1373L27.8766 53.1373L27.8766 49.5348L24.2788 49.5348L24.2788 53.1373Z" fill="#3730A3"/>
<path d="M96.2262 67.5485L99.8234 67.5485L99.8234 63.9454L96.2262 63.9454L96.2262 67.5485Z" fill="#3730A3"/>
<path d="M99.8233 63.9454L103.421 63.9454L103.421 60.3429L99.8233 60.3429L99.8233 63.9454Z" fill="#3730A3"/>
<path d="M107.018 63.9454L110.616 63.9454L110.616 60.3429L107.018 60.3429L107.018 63.9454Z" fill="#3730A3"/>
<path d="M78.239 56.7404L81.8369 56.7404L81.8369 53.1372L78.239 53.1372L78.239 56.7404Z" fill="#3730A3"/>
<path d="M103.421 60.343L107.018 60.343L107.018 56.7404L103.421 56.7404L103.421 60.343Z" fill="#3730A3"/>
<path d="M107.018 56.7404L110.616 56.7404L110.616 53.1373L107.018 53.1373L107.018 56.7404Z" fill="#3730A3"/>
<path d="M96.2262 60.3429L99.8234 60.3429L99.8234 56.7404L96.2262 56.7404L96.2262 60.3429Z" fill="#3730A3"/>
<path d="M110.616 60.343L114.213 60.343L114.213 56.7404L110.616 56.7404L110.616 60.343Z" fill="#3730A3"/>
<path d="M85.434 56.7404L89.0312 56.7404L89.0312 53.1372L85.434 53.1372L85.434 56.7404Z" fill="#3730A3"/>
<path d="M110.616 53.1373L114.213 53.1373L114.213 49.5348L110.616 49.5348L110.616 53.1373Z" fill="#3730A3"/>
<path d="M114.213 63.9454L117.81 63.9454L117.81 60.3429L114.213 60.3429L114.213 63.9454Z" fill="#3730A3"/>
<path d="M117.81 60.343L121.408 60.343L121.408 56.7404L117.81 56.7404L117.81 60.343Z" fill="#3730A3"/>
<path d="M121.408 63.9454L125.005 63.9454L125.005 60.3429L121.408 60.3429L121.408 63.9454Z" fill="#3730A3"/>
<path d="M78.239 49.5348L81.8369 49.5348L81.8369 45.9322L78.239 45.9322L78.239 49.5348Z" fill="#3730A3"/>
<path d="M71.0445 49.5348L74.6418 49.5348L74.6418 45.9322L71.0445 45.9322L71.0445 49.5348Z" fill="#3730A3"/>
<path d="M60.2525 20.7136L63.8497 20.7136L63.8497 17.1111L60.2525 17.1111L60.2525 20.7136Z" fill="#3730A3"/>
<path d="M71.0446 17.1113L74.6418 17.1113L74.6418 13.5088L71.0446 13.5088L71.0446 17.1113Z" fill="#3730A3"/>
<path d="M63.8497 27.9193L67.4475 27.9193L67.4475 24.3162L63.8497 24.3162L63.8497 27.9193Z" fill="#3730A3"/>
<path d="M67.4475 31.5218L71.0447 31.5218L71.0447 27.9193L67.4475 27.9193L67.4475 31.5218Z" fill="#3730A3"/>
<path d="M60.2525 38.7267L63.8497 38.7267L63.8497 35.1243L60.2525 35.1243L60.2525 38.7267Z" fill="#3730A3"/>
<path d="M56.6553 27.9193L60.2525 27.9193L60.2525 24.3162L56.6553 24.3162L56.6553 27.9193Z" fill="#3730A3"/>
<path d="M60.2525 31.5218L63.8497 31.5218L63.8497 27.9193L60.2525 27.9193L60.2525 31.5218Z" fill="#3730A3"/>
<path d="M81.8368 20.7137L85.434 20.7137L85.434 17.1111L81.8368 17.1111L81.8368 20.7137Z" fill="#3730A3"/>
<path d="M81.8368 35.1242L85.434 35.1242L85.434 31.5217L81.8368 31.5217L81.8368 35.1242Z" fill="#3730A3"/>
<path d="M63.8497 42.3298L67.4475 42.3298L67.4475 38.7267L63.8497 38.7267L63.8497 42.3298Z" fill="#3730A3"/>
<path d="M85.434 27.9193L89.0312 27.9193L89.0312 24.3162L85.434 24.3162L85.434 27.9193Z" fill="#3730A3"/>
<path d="M89.0312 45.9324L92.629 45.9324L92.629 42.3299L89.0312 42.3299L89.0312 45.9324Z" fill="#3730A3"/>
<path d="M74.6419 24.3162L78.2391 24.3162L78.2391 20.7137L74.6419 20.7137L74.6419 24.3162Z" fill="#3730A3"/>
<path d="M74.6418 42.3298L78.239 42.3298L78.239 38.7267L74.6418 38.7267L74.6418 42.3298Z" fill="#3730A3"/>
<path d="M89.0312 38.7268L92.629 38.7268L92.629 31.5218L89.0312 31.5218L89.0312 38.7268Z" fill="#3730A3"/>
<path d="M74.6419 35.1242L78.2391 35.1242L78.2391 27.9192L74.6419 27.9192L74.6419 35.1242Z" fill="#3730A3"/>
<path d="M67.4475 13.5088L71.0447 13.5088L71.0447 9.90565L67.4475 9.90565L67.4475 13.5088Z" fill="#3730A3"/>
<path d="M20.6816 45.9324L24.2788 45.9324L24.2788 42.3299L20.6816 42.3299L20.6816 45.9324Z" fill="#3730A3"/>
<path d="M63.8497 56.7404L67.4475 56.7404L67.4475 53.1372L63.8497 53.1372L63.8497 56.7404Z" fill="#3730A3"/>
<path d="M27.8766 45.9324L31.4738 45.9324L31.4738 42.3299L27.8766 42.3299L27.8766 45.9324Z" fill="#3730A3"/>
<path d="M35.071 45.9324L38.6688 45.9324L38.6688 42.3299L35.071 42.3299L35.071 45.9324Z" fill="#3730A3"/>
<path d="M35.071 38.7267L38.6688 38.7267L38.6688 35.1243L35.071 35.1243L35.071 38.7267Z" fill="#3730A3"/>
<path d="M6.29221 53.1373L9.8894 53.1373L9.8894 49.5348L6.29221 49.5348L6.29221 53.1373Z" fill="#3730A3"/>
<path d="M-0.902295 53.1373L2.69495 53.1373L2.69495 49.5348L-0.902295 49.5348L-0.902295 53.1373Z" fill="#3730A3"/>
<path d="M13.4872 42.3298L17.0844 42.3298L17.0844 38.7267L13.4872 38.7267L13.4872 42.3298Z" fill="#3730A3"/>
<path d="M49.4603 27.9193L53.0581 27.9193L53.0581 20.7137L49.4603 20.7137L49.4603 27.9193Z" fill="#3730A3"/>
<path d="M53.0581 17.1112L56.6553 17.1112L56.6553 13.5087L53.0581 13.5087L53.0581 17.1112Z" fill="#3730A3"/>
<path d="M42.266 45.9324L45.8632 45.9324L45.8632 42.3299L42.266 42.3299L42.266 45.9324Z" fill="#3730A3"/>
<path d="M56.6553 56.7404L60.2525 56.7404L60.2525 53.1372L56.6553 53.1372L56.6553 56.7404Z" fill="#3730A3"/>
<path d="M49.4603 35.1242L53.0581 35.1242L53.0581 31.5217L49.4603 31.5217L49.4603 35.1242Z" fill="#3730A3"/>
<path d="M38.6687 27.9193L42.2659 27.9193L42.2659 20.7137L38.6687 20.7137L38.6687 27.9193Z" fill="#3730A3"/>
<path d="M53.0581 45.9324L56.6553 45.9324L56.6553 42.3299L53.0581 42.3299L53.0581 45.9324Z" fill="#3730A3"/>
<path d="M49.4603 42.3298L53.0581 42.3298L53.0581 38.7267L49.4603 38.7267L49.4603 42.3298Z" fill="#3730A3"/>
<path d="M-72.852 63.9484L-72.852 67.5456L-69.2533 67.5456L-69.2533 63.9484L-65.6547 63.9484L-65.6547 71.1496L-62.0559 71.1496L-62.0559 63.9484L60.2523 63.9484L60.2523 67.5456L63.8511 67.5456L63.8511 63.9484L67.4498 63.9484L67.4498 67.5456L71.0417 67.5456L71.0417 63.9484L74.6404 63.9484L74.6404 71.1496L78.239 71.1496L78.239 63.9484L96.2258 63.9484L96.2258 60.3444L92.6271 60.3444L92.6271 56.7404L89.0284 56.7404L89.0284 60.3444L85.4365 60.3444L85.4365 56.7404L81.8377 56.7404L81.8377 60.3444L78.239 60.3444L78.239 56.7404L74.6404 56.7404L74.6404 60.3444L45.8643 60.3444L45.8643 53.1364L42.2656 53.1364L42.2656 60.3444L38.667 60.3444L38.667 53.1364L35.0682 53.1364L35.0682 60.3444L-15.2932 60.3444L-15.2932 56.7404L-18.8919 56.7404L-18.8919 60.3444L-22.4838 60.3444L-22.4838 56.7404L-26.0825 56.7404L-26.0825 60.3444L-29.6812 60.3444L-29.6812 56.7404L-33.2799 56.7404L-33.2799 60.3444L-36.8786 60.3444L-36.8786 56.7404L-40.4705 56.7404L-40.4705 60.3444L-44.0692 60.3444L-44.0692 56.7404L-47.6679 56.7404L-47.6679 60.3444L-51.2666 60.3444L-51.2666 56.7404L-54.8653 56.7404L-54.8653 60.3444L-58.4572 60.3444L-58.4572 56.7404L-62.0559 56.7404L-62.0559 60.3444L-65.6547 60.3444L-65.6547 56.7404L-69.2533 56.7404L-69.2533 60.3444L-72.852 60.3444L-72.852 56.7404L-76.4439 56.7404L-76.4439 60.3444L-80.0426 60.3444L-80.0426 63.9484L-72.852 63.9484Z" fill="#3730A3"/>
<path d="M373.222 24.3162L376.819 24.3162L376.819 20.7137L373.222 20.7137L373.222 24.3162Z" fill="#3730A3"/>
<path d="M366.028 49.5348L369.625 49.5348L369.625 42.3298L366.028 42.3298L366.028 49.5348Z" fill="#3730A3"/>
<path d="M369.625 38.7268L373.222 38.7268L373.222 35.1243L369.625 35.1243L369.625 38.7268Z" fill="#3730A3"/>
<path d="M376.819 35.1242L380.417 35.1242L380.417 31.5217L376.819 31.5217L376.819 35.1242Z" fill="#3730A3"/>
<path d="M362.43 60.343L366.028 60.343L366.028 56.7404L362.43 56.7404L362.43 60.343Z" fill="#3730A3"/>
<path d="M362.43 38.7268L366.028 38.7268L366.028 35.1243L362.43 35.1243L362.43 38.7268Z" fill="#3730A3"/>
<path d="M358.833 49.5348L362.43 49.5348L362.43 45.9323L358.833 45.9323L358.833 49.5348Z" fill="#3730A3"/>
<path d="M376.819 67.5485L380.417 67.5485L380.417 63.9454L376.819 63.9454L376.819 67.5485Z" fill="#3730A3"/>
<path d="M376.819 60.343L380.417 60.343L380.417 56.7404L376.819 56.7404L376.819 60.343Z" fill="#3730A3"/>
<path d="M355.235 42.3298L358.833 42.3298L358.833 38.7267L355.235 38.7267L355.235 42.3298Z" fill="#3730A3"/>
<path d="M358.833 13.5088L362.43 13.5088L362.43 9.90568L358.833 9.90568L358.833 13.5088Z" fill="#3730A3"/>
<path d="M319.262 45.9324L322.859 45.9324L322.859 42.3299L319.262 42.3299L319.262 45.9324Z" fill="#3730A3"/>
<path d="M355.235 60.343L358.833 60.343L358.833 56.7404L355.235 56.7404L355.235 60.343Z" fill="#3730A3"/>
<path d="M330.054 38.7268L333.651 38.7268L333.651 35.1243L330.054 35.1243L330.054 38.7268Z" fill="#3730A3"/>
<path d="M333.651 45.9324L337.249 45.9324L337.249 42.3299L333.651 42.3299L333.651 45.9324Z" fill="#3730A3"/>
<path d="M330.054 31.5218L333.651 31.5218L333.651 27.9193L330.054 27.9193L330.054 31.5218Z" fill="#3730A3"/>
<path d="M322.859 42.3298L326.457 42.3298L326.457 38.7267L322.859 38.7267L322.859 42.3298Z" fill="#3730A3"/>
<path d="M319.262 60.343L322.859 60.343L322.859 49.5349L319.262 49.5349L319.262 60.343Z" fill="#3730A3"/>
<path d="M326.457 56.7404L330.054 56.7404L330.054 53.1373L326.457 53.1373L326.457 56.7404Z" fill="#3730A3"/>
<path d="M326.457 45.9324L330.054 45.9324L330.054 42.3299L326.457 42.3299L326.457 45.9324Z" fill="#3730A3"/>
<path d="M333.651 56.7404L337.249 56.7404L337.249 53.1373L333.651 53.1373L333.651 56.7404Z" fill="#3730A3"/>
<path d="M351.638 49.5348L355.235 49.5348L355.235 45.9323L351.638 45.9323L351.638 49.5348Z" fill="#3730A3"/>
<path d="M348.04 42.3298L351.638 42.3298L351.638 38.7267L348.04 38.7267L348.04 42.3298Z" fill="#3730A3"/>
<path d="M348.04 60.343L351.638 60.343L351.638 49.5349L348.04 49.5349L348.04 60.343Z" fill="#3730A3"/>
<path d="M333.651 27.9193L337.249 27.9193L337.249 24.3162L333.651 24.3162L333.651 27.9193Z" fill="#3730A3"/>
<path d="M344.443 27.9193L348.04 27.9193L348.04 24.3162L344.443 24.3162L344.443 27.9193Z" fill="#3730A3"/>
<path d="M340.846 45.9324L344.443 45.9324L344.443 42.3299L340.846 42.3299L340.846 45.9324Z" fill="#3730A3"/>
<path d="M330.054 20.7137L333.651 20.7137L333.651 17.1111L330.054 17.1111L330.054 20.7137Z" fill="#3730A3"/>
<path d="M340.846 60.343L344.443 60.343L344.443 49.5349L340.846 49.5349L340.846 60.343Z" fill="#3730A3"/>
<path d="M322.859 24.3162L326.457 24.3162L326.457 20.7137L322.859 20.7137L322.859 24.3162Z" fill="#3730A3"/>
<path d="M250.912 38.7268L254.509 38.7268L254.509 35.1243L250.912 35.1243L250.912 38.7268Z" fill="#3730A3"/>
<path d="M243.718 78.356L247.315 78.356L247.315 74.7535L243.718 74.7535L243.718 78.356Z" fill="#3730A3"/>
<path d="M250.912 78.356L254.509 78.356L254.509 74.7535L250.912 74.7535L250.912 78.356Z" fill="#3730A3"/>
<path d="M247.315 74.7534L250.912 74.7534L250.912 71.151L247.315 71.151L247.315 74.7534Z" fill="#3730A3"/>
<path d="M240.12 74.7534L243.718 74.7534L243.718 71.151L240.12 71.151L240.12 74.7534Z" fill="#3730A3"/>
<path d="M240.12 85.5615L243.718 85.5615L243.718 78.356L240.12 78.356L240.12 85.5615Z" fill="#3730A3"/>
<path d="M236.523 78.356L240.12 78.356L240.12 74.7535L236.523 74.7535L236.523 78.356Z" fill="#3730A3"/>
<path d="M236.523 60.343L240.12 60.343L240.12 56.7404L236.523 56.7404L236.523 60.343Z" fill="#3730A3"/>
<path d="M254.509 74.7534L258.107 74.7534L258.107 71.151L254.509 71.151L254.509 74.7534Z" fill="#3730A3"/>
<path d="M240.12 67.5485L243.718 67.5485L243.718 63.9454L240.12 63.9454L240.12 67.5485Z" fill="#3730A3"/>
<path d="M222.133 63.9454L225.731 63.9454L225.731 60.3429L222.133 60.3429L222.133 63.9454Z" fill="#3730A3"/>
<path d="M211.341 71.1511L214.939 71.1511L214.939 63.9455L211.341 63.9455L211.341 71.1511Z" fill="#3730A3"/>
<path d="M214.939 63.9454L218.536 63.9454L218.536 60.3429L214.939 60.3429L214.939 63.9454Z" fill="#3730A3"/>
<path d="M218.536 74.7534L222.133 74.7534L222.133 63.9454L218.536 63.9454L218.536 74.7534Z" fill="#3730A3"/>
<path d="M229.328 81.9591L232.926 81.9591L232.926 74.7535L229.328 74.7535L229.328 81.9591Z" fill="#3730A3"/>
<path d="M232.925 67.5485L236.523 67.5485L236.523 63.9454L232.925 63.9454L232.925 67.5485Z" fill="#3730A3"/>
<path d="M240.12 56.7404L243.718 56.7404L243.718 53.1373L240.12 53.1373L240.12 56.7404Z" fill="#3730A3"/>
<path d="M232.925 74.7534L236.523 74.7534L236.523 71.151L232.925 71.151L232.925 74.7534Z" fill="#3730A3"/>
<path d="M229.328 63.9454L232.926 63.9454L232.926 60.3429L229.328 60.3429L229.328 63.9454Z" fill="#3730A3"/>
<path d="M225.731 74.7534L229.328 74.7534L229.328 63.9454L225.731 63.9454L225.731 74.7534Z" fill="#3730A3"/>
<path d="M232.925 56.7404L236.523 56.7404L236.523 49.5348L232.925 49.5348L232.925 56.7404Z" fill="#3730A3"/>
<path d="M225.731 53.1373L229.328 53.1373L229.328 49.5348L225.731 49.5348L225.731 53.1373Z" fill="#3730A3"/>
<path d="M232.925 27.9193L236.523 27.9193L236.523 24.3162L232.925 24.3162L232.925 27.9193Z" fill="#3730A3"/>
<path d="M222.133 49.5348L225.731 49.5348L225.731 42.3298L222.133 42.3298L222.133 49.5348Z" fill="#3730A3"/>
<path d="M243.718 38.7268L247.315 38.7268L247.315 35.1243L243.718 35.1243L243.718 38.7268Z" fill="#3730A3"/>
<path d="M236.523 45.9324L240.12 45.9324L240.12 42.3299L236.523 42.3299L236.523 45.9324Z" fill="#3730A3"/>
<path d="M250.912 49.5348L254.509 49.5348L254.509 42.3298L250.912 42.3298L250.912 49.5348Z" fill="#3730A3"/>
<path d="M243.718 24.3162L247.315 24.3162L247.315 20.7137L243.718 20.7137L243.718 24.3162Z" fill="#3730A3"/>
<path d="M240.12 27.9193L243.718 27.9193L243.718 24.3162L240.12 24.3162L240.12 27.9193Z" fill="#3730A3"/>
<path d="M243.718 49.5348L247.315 49.5348L247.315 42.3298L243.718 42.3298L243.718 49.5348Z" fill="#3730A3"/>
<path d="M243.718 63.9454L247.315 63.9454L247.315 56.7404L243.718 56.7404L243.718 63.9454Z" fill="#3730A3"/>
<path d="M214.939 45.9324L218.536 45.9324L218.536 38.7269L214.939 38.7269L214.939 45.9324Z" fill="#3730A3"/>
<path d="M214.939 56.7404L218.536 56.7404L218.536 53.1373L214.939 53.1373L214.939 56.7404Z" fill="#3730A3"/>
<path d="M229.328 45.9324L232.926 45.9324L232.926 42.3299L229.328 42.3299L229.328 45.9324Z" fill="#3730A3"/>
<path d="M254.507 60.3444L250.909 60.3444L250.909 63.9484L247.317 63.9484L247.317 67.5456L258.106 67.5456L258.106 71.1496L261.705 71.1496L261.705 67.5456L265.304 67.5456L265.304 71.1496L268.896 71.1496L268.896 67.5456L373.224 67.5456L373.224 63.9484L308.468 63.9484L308.468 60.3444L304.876 60.3444L304.876 63.9484L301.277 63.9484L301.277 60.3444L297.678 60.3444L297.678 63.9484L294.08 63.9484L294.08 60.3444L290.481 60.3444L290.481 63.9484L276.093 63.9484L276.093 60.3444L272.494 60.3444L272.494 63.9484L254.507 63.9484L254.507 60.3444Z" fill="#3730A3"/>
<path d="M222.133 35.1242L225.731 35.1242L225.731 31.5217L222.133 31.5217L222.133 35.1242Z" fill="#3730A3"/>
<path d="M225.731 42.3298L229.328 42.3298L229.328 38.7267L225.731 38.7267L225.731 42.3298Z" fill="#3730A3"/>
<path d="M225.731 31.5218L229.328 31.5218L229.328 27.9193L225.731 27.9193L225.731 31.5218Z" fill="#3730A3"/>
<path d="M225.731 24.3162L229.328 24.3162L229.328 20.7137L225.731 20.7137L225.731 24.3162Z" fill="#3730A3"/>
<path d="M297.678 53.1373L301.275 53.1373L301.275 45.9323L297.678 45.9323L297.678 53.1373Z" fill="#3730A3"/>
<path d="M319.262 27.9193L322.859 27.9193L322.859 24.3162L319.262 24.3162L319.262 27.9193Z" fill="#3730A3"/>
<path d="M304.872 53.1373L308.47 53.1373L308.47 49.5348L304.872 49.5348L304.872 53.1373Z" fill="#3730A3"/>
<path d="M304.872 45.9324L308.47 45.9324L308.47 38.7269L304.872 38.7269L304.872 45.9324Z" fill="#3730A3"/>
<path d="M294.08 42.3298L297.678 42.3298L297.678 38.7267L294.08 38.7267L294.08 42.3298Z" fill="#3730A3"/>
<path d="M290.483 17.1113L294.08 17.1113L294.08 13.5088L290.483 13.5088L290.483 17.1113Z" fill="#3730A3"/>
<path d="M301.275 38.7268L304.872 38.7268L304.872 35.1243L301.275 35.1243L301.275 38.7268Z" fill="#3730A3"/>
<path d="M286.886 42.3298L290.483 42.3298L290.483 38.7267L286.886 38.7267L286.886 42.3298Z" fill="#3730A3"/>
<path d="M247.315 81.9591L250.912 81.9591L250.912 78.3559L247.315 78.3559L247.315 81.9591Z" fill="#3730A3"/>
<path d="M290.483 35.1242L294.08 35.1242L294.08 31.5217L290.483 31.5217L290.483 35.1242Z" fill="#3730A3"/>
<path d="M312.067 60.343L315.665 60.343L315.665 56.7404L312.067 56.7404L312.067 60.343Z" fill="#3730A3"/>
<path d="M312.067 42.3298L315.665 42.3298L315.665 38.7267L312.067 38.7267L312.067 42.3298Z" fill="#3730A3"/>
<path d="M308.47 35.1242L312.067 35.1242L312.067 31.5217L308.47 31.5217L308.47 35.1242Z" fill="#3730A3"/>
<path d="M312.067 53.1373L315.665 53.1373L315.665 49.5348L312.067 49.5348L312.067 53.1373Z" fill="#3730A3"/>
<path d="M322.859 35.1242L326.457 35.1242L326.457 27.9192L322.859 27.9192L322.859 35.1242Z" fill="#3730A3"/>
<path d="M315.665 38.7268L319.262 38.7268L319.262 35.1243L315.665 35.1243L315.665 38.7268Z" fill="#3730A3"/>
<path d="M312.067 31.5218L315.665 31.5218L315.665 27.9193L312.067 27.9193L312.067 31.5218Z" fill="#3730A3"/>
<path d="M279.691 13.5088L283.289 13.5088L283.289 9.90568L279.691 9.90568L279.691 13.5088Z" fill="#3730A3"/>
<path d="M308.47 17.1113L312.067 17.1113L312.067 13.5088L308.47 13.5088L308.47 17.1113Z" fill="#3730A3"/>
<path d="M283.289 31.5218L286.886 31.5218L286.886 27.9193L283.289 27.9193L283.289 31.5218Z" fill="#3730A3"/>
<path d="M272.496 85.5615L276.094 85.5615L276.094 81.959L272.496 81.959L272.496 85.5615Z" fill="#3730A3"/>
<path d="M261.704 81.9591L265.301 81.9591L265.301 78.3559L261.704 78.3559L261.704 81.9591Z" fill="#3730A3"/>
<path d="M268.899 74.7534L272.497 74.7534L272.497 71.151L268.899 71.151L268.899 74.7534Z" fill="#3730A3"/>
<path d="M276.094 89.1641L279.691 89.1641L279.691 85.5616L276.094 85.5616L276.094 89.1641Z" fill="#3730A3"/>
<path d="M261.704 74.7534L265.301 74.7534L265.301 71.151L261.704 71.151L261.704 74.7534Z" fill="#3730A3"/>
<path d="M258.107 85.5615L261.704 85.5615L261.704 81.959L258.107 81.959L258.107 85.5615Z" fill="#3730A3"/>
<path d="M254.509 81.9591L258.107 81.9591L258.107 78.3559L254.509 78.3559L254.509 81.9591Z" fill="#3730A3"/>
<path d="M268.899 89.1641L272.497 89.1641L272.497 85.5616L268.899 85.5616L268.899 89.1641Z" fill="#3730A3"/>
<path d="M265.301 85.5615L268.899 85.5615L268.899 81.959L265.301 81.959L265.301 85.5615Z" fill="#3730A3"/>
<path d="M279.691 42.3298L283.289 42.3298L283.289 38.7267L279.691 38.7267L279.691 42.3298Z" fill="#3730A3"/>
<path d="M279.691 60.343L283.289 60.343L283.289 56.7404L279.691 56.7404L279.691 60.343Z" fill="#3730A3"/>
<path d="M286.886 49.5348L290.483 49.5348L290.483 45.9323L286.886 45.9323L286.886 49.5348Z" fill="#3730A3"/>
<path d="M272.496 49.5348L276.094 49.5348L276.094 45.9323L272.496 45.9323L272.496 49.5348Z" fill="#3730A3"/>
<path d="M290.483 53.1373L294.08 53.1373L294.08 49.5348L290.483 49.5348L290.483 53.1373Z" fill="#3730A3"/>
<path d="M279.691 49.5348L283.289 49.5348L283.289 45.9323L279.691 45.9323L279.691 49.5348Z" fill="#3730A3"/>
<path d="M276.094 53.1373L279.691 53.1373L279.691 49.5348L276.094 49.5348L276.094 53.1373Z" fill="#3730A3"/>
<path d="M286.886 56.7404L290.483 56.7404L290.483 53.1373L286.886 53.1373L286.886 56.7404Z" fill="#3730A3"/>
<path d="M283.289 53.1373L286.886 53.1373L286.886 49.5348L283.289 49.5348L283.289 53.1373Z" fill="#3730A3"/>
</g>
<defs>
<clipPath id="clip0_109_190">
<path d="M0 0H368C374.627 0 380 5.37258 380 12V160H0V0Z" fill="white"/>
</clipPath>
</defs>
</svg>
