<?xml version="1.0" encoding="utf-8"?>
<!-- Generator: Adobe Illustrator 26.2.1, SVG Export Plug-In . SVG Version: 6.00 Build 0)  -->
<svg version="1.1" id="Layer_1" xmlns="http://www.w3.org/2000/svg" xmlns:xlink="http://www.w3.org/1999/xlink" x="0px" y="0px"
	 viewBox="0 0 1500 1500" enable-background="new 0 0 1500 1500" xml:space="preserve">
<g>
	<g>
		<path fill="none" d="M915.97388,913.75348c0,91.66504-74.30859,165.97357-165.97363,165.97357
			s-165.97363-74.30853-165.97363-165.97357c0-225.60645-220.53122-515.13867-534.02637-515.13867
			c0,386.59964,313.40039,700,700,700s700-313.40033,700-700C1136.50513,398.61478,915.97388,688.14703,915.97388,913.75348z"/>
	</g>
	<g>
		<g>
			<g>
				<path fill="none" stroke="#000000" stroke-width="1.98247" stroke-miterlimit="10" d="M750.00024,1079.72705
					c-91.66467,0-165.97363-74.30896-165.97363-165.97363c0-225.60651-220.53134-515.13867-534.02631-515.13867"/>
				<path fill="none" stroke="#000000" stroke-width="1.98247" stroke-miterlimit="10" d="M50.00027,398.61478
					c282.14548,0,485.95786,274.12454,507.97025,492.50229c10.21576,101.34753,87.19061,189.58325,192.02972,189.58325"/>
				<path fill="none" stroke="#000000" stroke-width="1.98247" stroke-miterlimit="10" d="M50.00027,398.61478
					c250.79599,0,441.77985,259.51926,481.91409,469.86588c21.31787,111.72845,100.07239,213.19305,218.08588,213.19305"/>
				<path fill="none" stroke="#000000" stroke-width="1.98247" stroke-miterlimit="10" d="M50.00027,398.61478
					c219.4465,0,400.61188,245.00327,455.85797,447.22952c33.42648,122.35645,112.95413,236.80267,244.142,236.80267"/>
				<path fill="none" stroke="#000000" stroke-width="1.98247" stroke-miterlimit="10" d="M50.00027,398.61478
					c188.09698,0,361.63867,230.16953,429.80185,424.59317c46.5871,132.88159,125.83582,260.41229,270.19812,260.41229"/>
				<path fill="none" stroke="#000000" stroke-width="1.98247" stroke-miterlimit="10" d="M50.00027,398.61478
					c156.7475,0,324.20172,214.80258,403.74573,401.95682c60.79422,143.03888,138.71756,284.02203,296.25424,284.02203"/>
				<path fill="none" stroke="#000000" stroke-width="1.98247" stroke-miterlimit="10" d="M50.00027,398.61478
					c125.39799,0,287.79666,198.79782,377.68961,379.32047c76.00424,152.63129,151.59924,307.63165,322.31036,307.63165"/>
				<path fill="none" stroke="#000000" stroke-width="1.98247" stroke-miterlimit="10" d="M50.00027,398.61478
					c94.0485,0,252.04474,182.11465,351.63348,356.68405c92.14337,161.51837,164.48099,331.24133,348.36649,331.24133"/>
				<path fill="none" stroke="#000000" stroke-width="1.98247" stroke-miterlimit="10" d="M50.00027,398.61478
					c62.699,0,216.66373,164.7507,325.57736,334.0477c109.11407,169.60858,177.36273,354.85107,374.42261,354.85107"/>
				<path fill="none" stroke="#000000" stroke-width="1.98247" stroke-miterlimit="10" d="M50.00026,398.61478
					c31.3495,0,181.44461,146.72726,299.52124,311.41135c126.80215,176.8537,190.24442,378.46069,400.47873,378.46069"/>
				<path fill="none" stroke="#000000" stroke-width="1.98247" stroke-miterlimit="10" d="M50.00026,398.61478
					c0,0,146.23436,128.08084,273.46512,288.77499c145.08466,183.24371,203.12616,402.07031,426.53485,402.07031"/>
				<path fill="none" stroke="#000000" stroke-width="1.98247" stroke-miterlimit="10" d="M750.00024,1090.37561
					c-224.61523,0-297.68439-208.57086-440.94897-391.31628C186.40025,542.99408,50.00026,413.72729,50.00026,398.61478"/>
				<path fill="none" stroke="#000000" stroke-width="1.98247" stroke-miterlimit="10" d="M750.00024,1091.29102
					c-225.82178,0-313.91858-198.31506-455.3631-380.56213C176.5659,559.29248,50.00026,428.83981,50.00026,398.61478"/>
				<path fill="none" stroke="#000000" stroke-width="1.98247" stroke-miterlimit="10" d="M750.00024,1092.20654
					c-227.02832,0-330.15277-188.05939-469.77725-369.80804C166.73154,575.59088,50.00026,443.95236,50.00026,398.61478"/>
				<path fill="none" stroke="#000000" stroke-width="1.98247" stroke-miterlimit="10" d="M750.00024,1093.12195
					c-228.23486,0-346.38696-177.80353-484.19138-359.05389C156.89717,591.88928,50.00026,459.06488,50.00026,398.61478"/>
				<path fill="none" stroke="#000000" stroke-width="1.98247" stroke-miterlimit="10" d="M750.00024,1094.03748
					c-229.44141,0-362.62119-167.54785-498.60553-348.29987C147.06281,608.18768,50.00026,474.1774,50.00026,398.61478"/>
				<path fill="none" stroke="#000000" stroke-width="1.98247" stroke-miterlimit="10" d="M750.00024,1094.95288
					c-230.64795,0-378.85538-157.29205-513.01965-337.54565C137.22845,624.48608,50.00026,489.28992,50.00026,398.61478"/>
				<path fill="none" stroke="#000000" stroke-width="1.98247" stroke-miterlimit="10" d="M750.00024,1095.86841
					c-231.85449,0-395.08957-147.03632-527.43378-326.79163C127.39409,640.78448,50.00026,504.40244,50.00026,398.61478"/>
				<path fill="none" stroke="#000000" stroke-width="1.98247" stroke-miterlimit="10" d="M750.00024,1096.78381
					c-233.06104,0-411.32376-136.78052-541.8479-316.03748C117.55972,657.08289,50.00026,519.51495,50.00026,398.61478"/>
				<path fill="none" stroke="#000000" stroke-width="1.98247" stroke-miterlimit="10" d="M750.00024,1097.69934
					c-234.26758,0-427.55795-126.52484-556.26208-305.28339C107.72536,673.38129,50.00026,534.62744,50.00026,398.61478"/>
				<path fill="none" stroke="#000000" stroke-width="1.98247" stroke-miterlimit="10" d="M750.00024,1098.61475
					c-386.5993,0-700-313.40063-700-700"/>
			</g>
			<g>
				<path fill="none" stroke="#000000" stroke-width="1.98247" stroke-miterlimit="10" d="M750.00024,1079.72705
					c91.66473,0,165.97363-74.30896,165.97363-165.97363c0-225.60651,220.53137-515.13867,534.02637-515.13867"/>
				<path fill="none" stroke="#000000" stroke-width="1.98247" stroke-miterlimit="10" d="M1450.00024,398.61478
					c-282.14551,0-485.95789,274.12454-507.97021,492.50229c-10.21582,101.34753-87.19067,189.58325-192.02979,189.58325"/>
				<path fill="none" stroke="#000000" stroke-width="1.98247" stroke-miterlimit="10" d="M1450.00024,398.61478
					c-250.79602,0-441.77985,259.51926-481.91412,469.86588c-21.31781,111.72845-100.07233,213.19305-218.08588,213.19305"/>
				<path fill="none" stroke="#000000" stroke-width="1.98247" stroke-miterlimit="10" d="M1450.00024,398.61478
					c-219.44653,0-400.61182,245.00327-455.85797,447.22952c-33.42651,122.35645-112.9541,236.80267-244.14203,236.80267"/>
				<path fill="none" stroke="#000000" stroke-width="1.98247" stroke-miterlimit="10" d="M1450.00024,398.61478
					c-188.09692,0-361.63867,230.16953-429.80188,424.59317c-46.5871,132.88159-125.83582,260.41229-270.19812,260.41229"/>
				<path fill="none" stroke="#000000" stroke-width="1.98247" stroke-miterlimit="10" d="M1450.00024,398.61478
					c-156.74744,0-324.20166,214.80258-403.74573,401.95682c-60.79419,143.03888-138.71753,284.02203-296.25427,284.02203"/>
				<path fill="none" stroke="#000000" stroke-width="1.98247" stroke-miterlimit="10" d="M1450.00024,398.61478
					c-125.39795,0-287.79663,198.79782-377.68958,379.32047c-76.00427,152.63129-151.5993,307.63165-322.31042,307.63165"/>
				<path fill="none" stroke="#000000" stroke-width="1.98247" stroke-miterlimit="10" d="M1450.00024,398.61478
					c-94.04846,0-252.04468,182.11465-351.63354,356.68405c-92.14331,161.51837-164.4809,331.24133-348.36646,331.24133"/>
				<path fill="none" stroke="#000000" stroke-width="1.98247" stroke-miterlimit="10" d="M1450.00024,398.61478
					c-62.69897,0-216.6637,164.7507-325.57739,334.0477c-109.11401,169.60858-177.36267,354.85107-374.42261,354.85107"/>
				<path fill="none" stroke="#000000" stroke-width="1.98247" stroke-miterlimit="10" d="M1450.00024,398.61478
					c-31.34949,0-181.44458,146.72726-299.52124,311.41135c-126.80212,176.8537-190.24445,378.46069-400.47876,378.46069"/>
				<path fill="none" stroke="#000000" stroke-width="1.98247" stroke-miterlimit="10" d="M1450.00024,398.61478
					c0,0-146.23438,128.08084-273.46509,288.77499c-145.08472,183.24371-203.12616,402.07031-426.53491,402.07031"/>
				<path fill="none" stroke="#000000" stroke-width="1.98247" stroke-miterlimit="10" d="M750.00024,1090.37561
					c224.6153,0,297.68445-208.57086,440.94897-391.31628c122.651-156.06525,259.05103-285.33203,259.05103-300.44455"/>
				<path fill="none" stroke="#000000" stroke-width="1.98247" stroke-miterlimit="10" d="M750.00024,1091.29102
					c225.82184,0,313.91858-198.31506,455.36316-380.56213c118.07117-151.4364,244.63684-281.88907,244.63684-312.11411"/>
				<path fill="none" stroke="#000000" stroke-width="1.98247" stroke-miterlimit="10" d="M750.00024,1092.20654
					c227.02838,0,330.15283-188.05939,469.77722-369.80804c113.49158-146.80762,230.22278-278.44614,230.22278-323.78372"/>
				<path fill="none" stroke="#000000" stroke-width="1.98247" stroke-miterlimit="10" d="M750.00024,1093.12195
					c228.23492,0,346.38696-177.80353,484.19141-359.05389c108.91174-142.17877,215.80859-275.00317,215.80859-335.45328"/>
				<path fill="none" stroke="#000000" stroke-width="1.98247" stroke-miterlimit="10" d="M750.00024,1094.03748
					c229.44147,0,362.62122-167.54785,498.60559-348.29987c104.33191-137.54993,201.39441-271.56021,201.39441-347.12283"/>
				<path fill="none" stroke="#000000" stroke-width="1.98247" stroke-miterlimit="10" d="M750.00024,1094.95288
					c230.64801,0,378.85535-157.29205,513.01965-337.54565c99.7522-132.92114,186.98035-268.11731,186.98035-358.79245"/>
				<path fill="none" stroke="#000000" stroke-width="1.98247" stroke-miterlimit="10" d="M750.00024,1095.86841
					c231.85455,0,395.0896-147.03632,527.43384-326.79163c95.17236-128.2923,172.56616-264.67435,172.56616-370.46201"/>
				<path fill="none" stroke="#000000" stroke-width="1.98247" stroke-miterlimit="10" d="M750.00024,1096.78381
					c233.0611,0,411.32385-136.78052,541.8479-316.03748c90.59265-123.66345,158.1521-261.23138,158.1521-382.13156"/>
				<path fill="none" stroke="#000000" stroke-width="1.98247" stroke-miterlimit="10" d="M750.00024,1097.69934
					c234.26758,0,427.55798-126.52484,556.26208-305.28339c86.01282-119.03467,143.73792-257.78851,143.73792-393.80118"/>
				<path fill="none" stroke="#000000" stroke-width="1.98247" stroke-miterlimit="10" d="M750.00024,1098.61475
					c386.59937,0,700-313.40063,700-700"/>
			</g>
		</g>
		<g>
			<path fill="none" stroke="#000000" stroke-width="1.98247" stroke-miterlimit="10" d="M750.00024,1098.61475
				c-386.5993,0-700-313.40063-699.99994-700c313.495,0,534.02631,289.53214,534.02631,515.13867
				c0,91.66467,74.30896,165.97363,165.97363,165.97363"/>
			<path fill="none" stroke="#000000" stroke-width="1.98247" stroke-miterlimit="10" d="M750.00024,1098.61475
				c386.59937,0,700-313.40063,700-700c-313.495,0-534.02637,289.53214-534.02637,515.13867
				c0,91.66467-74.3089,165.97363-165.97363,165.97363"/>
		</g>
	</g>
</g>
</svg>
